<?xml version="1.0" encoding="utf-8" ?>
<svg baseProfile="full" height="150px" version="1.1" viewBox="0 0 150 150" width="150px" xmlns="http://www.w3.org/2000/svg" xmlns:ev="http://www.w3.org/2001/xml-events" xmlns:xlink="http://www.w3.org/1999/xlink"><defs /><g id="xff3000_r255_g48_b0_a0.10588235294117647"><path d="M 143,107 143,109 142,109 142,110 141,110 141,111 140,111 140,113 139,113 139,114 138,114 138,115 137,115 136,115 136,116 135,116 135,117 133,117 133,118 131,118 131,119 129,119 128,119 128,120 127,120 125,120 125,121 122,121 122,122 119,122 118,122 118,123 117,123 115,123 114,123 114,124 113,124 111,124 111,125 108,125 108,126 106,126 106,127 103,127 103,128 99,128 95,128 95,127 94,127 94,125 93,125 93,124 92,124 92,123 91,123 91,124 89,124 83,124 78,124 78,123 75,123 73,123 73,122 71,122 70,122 70,121 69,121 68,121 68,120 67,120 65,120 65,119 64,119 64,118 62,118 62,117 61,117 61,115 60,115 60,114 59,114 59,113 58,113 58,112 57,112 57,111 56,111 56,110 55,110 55,109 54,109 54,108 51,108 51,107 46,107 46,106 43,106 43,105 40,105 40,104 38,104 38,103 36,103 36,102 34,102 34,101 33,101 33,100 32,100 32,99 31,99 31,98 28,98 28,97 25,97 25,96 21,96 21,95 18,95 18,94 15,94 15,93 13,93 13,92 11,92 11,91 10,91 10,90 9,90 9,89 7,89 7,87 6,87 6,86 5,86 5,83 4,83 4,76 3,76 3,67 4,67 4,65 5,65 5,60 6,60 6,56 7,56 7,54 9,54 9,53 11,53 11,52 16,52 16,51 33,51 33,50 36,50 36,49 40,49 40,48 45,48 45,47 54,47 54,46 53,46 53,44 52,44 52,39 53,39 53,37 54,37 54,36 55,36 55,35 60,35 60,34 74,34 81,34 81,33 89,33 94,33 94,34 99,34 100,34 100,35 101,35 109,35 109,34 111,34 111,33 114,33 114,32 123,32 123,33 128,33 128,34 132,34 132,35 134,35 134,36 136,36 136,37 138,37 138,38 140,38 140,39 141,39 141,40 142,40 142,41 143,41 143,43 144,43 144,46 145,46 145,55 144,55 144,56 145,56 145,60 146,60 146,63 147,63 147,65 148,65 148,61 149,61 149,58 150,58 150,88 149,88 149,91 148,91 148,96 147,96 147,101 146,101 146,104 145,104 145,106 144,106 144,107 z M 130,43 130,44 132,44 132,45 133,45 133,46 130,46 130,45 124,45 124,44 122,44 122,43 120,43 120,44 121,44 121,47 118,47 118,48 113,48 112,48 112,47 111,47 111,48 110,48 110,47 107,47 107,48 105,48 105,47 104,47 104,46 103,46 103,45 99,45 99,46 100,46 100,47 101,47 101,48 99,48 99,49 97,49 97,50 92,50 92,52 88,52 88,51 79,51 79,50 78,50 78,51 77,51 77,50 73,50 73,51 68,51 68,52 65,52 65,53 63,53 63,54 47,54 47,55 43,55 43,56 40,56 40,57 39,57 39,58 41,58 41,57 46,57 46,56 53,56 53,57 50,57 50,58 49,58 49,59 27,59 27,58 17,58 17,59 13,59 13,60 11,60 11,61 9,61 9,62 12,62 12,61 16,61 16,60 28,60 28,61 32,61 32,62 34,62 34,63 36,63 36,64 37,64 37,65 40,65 40,66 41,66 41,67 42,67 42,68 38,68 38,67 36,67 36,65 30,65 30,66 31,66 31,67 33,67 33,68 31,68 31,69 28,69 28,70 29,70 29,71 32,71 32,72 34,72 34,73 35,73 35,74 33,74 33,73 30,73 30,72 27,72 27,71 25,71 25,70 22,70 22,68 15,68 15,69 8,69 8,71 7,71 7,73 9,73 9,74 10,74 10,75 12,75 12,76 13,76 13,77 15,77 15,78 18,78 18,77 16,77 16,76 15,76 15,75 13,75 13,74 11,74 11,73 9,73 9,72 8,72 8,71 17,71 17,72 20,72 20,73 22,73 22,74 24,74 24,75 25,75 25,76 27,76 27,77 28,77 28,75 27,75 27,74 26,74 26,73 25,73 25,72 27,72 27,73 30,73 30,74 31,74 31,75 33,75 33,77 32,77 32,78 33,78 33,79 31,79 31,81 33,81 33,82 30,82 30,83 33,83 33,82 35,82 35,83 36,83 36,84 38,84 38,85 39,85 39,86 41,86 41,87 42,87 42,88 43,88 43,89 44,89 44,90 45,90 45,91 47,91 47,92 48,92 48,93 49,93 49,94 50,94 50,95 51,95 51,96 53,96 53,97 48,97 48,96 46,96 46,95 44,95 44,94 42,94 42,93 41,93 41,92 39,92 39,93 40,93 40,94 41,94 41,95 43,95 43,96 45,96 45,97 47,97 47,98 43,98 43,97 40,97 40,96 38,96 38,95 35,95 35,94 34,94 34,95 35,95 35,96 37,96 37,97 39,97 39,98 41,98 41,99 45,99 45,100 50,100 50,101 56,101 56,100 57,100 57,101 61,101 61,102 63,102 63,103 65,103 65,104 67,104 67,102 68,102 68,101 69,101 69,100 72,100 72,101 75,101 75,102 78,102 78,103 77,103 77,104 74,104 74,105 62,105 62,106 76,106 76,105 78,105 78,106 81,106 81,107 86,107 86,108 92,108 92,109 91,109 91,110 90,110 90,111 89,111 89,112 91,112 91,111 92,111 92,110 94,110 94,109 95,109 95,110 98,110 98,109 107,109 109,109 109,110 110,110 110,111 108,111 108,112 110,112 110,111 112,111 112,113 111,113 111,114 110,114 110,115 107,115 107,116 106,116 106,117 105,117 105,118 104,118 104,119 103,119 103,120 102,120 102,121 101,121 101,122 99,122 99,123 98,123 98,124 99,124 99,123 102,123 102,122 103,122 103,121 104,121 104,120 105,120 105,119 106,119 106,118 107,118 107,117 109,117 109,118 111,118 111,117 115,117 117,117 117,116 120,116 120,115 122,115 122,114 123,114 123,113 124,113 124,112 125,112 125,111 124,111 124,112 122,112 122,113 121,113 121,114 118,114 118,115 115,115 115,116 113,116 113,115 114,115 114,113 115,113 115,111 116,111 116,110 118,110 118,109 120,109 120,108 126,108 126,107 127,107 127,108 129,108 129,107 133,107 133,108 132,108 132,109 131,109 131,110 130,110 130,111 129,111 129,112 128,112 128,113 127,113 127,114 128,114 128,113 130,113 130,112 131,112 131,111 132,111 132,110 133,110 133,109 134,109 134,107 135,107 135,105 136,105 136,104 137,104 137,102 138,102 138,100 139,100 139,99 140,99 140,97 141,97 141,96 140,96 140,97 139,97 139,93 140,93 140,91 141,91 141,90 142,90 142,86 143,86 143,84 144,84 144,82 145,82 145,79 145,73 144,73 144,71 143,71 143,70 142,70 142,68 141,68 141,66 140,66 140,64 139,64 139,62 138,62 138,60 137,60 137,58 136,58 136,56 137,56 137,53 138,53 138,48 137,48 137,47 136,47 136,45 134,45 134,44 133,44 133,43 131,43 131,42 129,42 129,43 z M 62,42 62,41 57,41 56,41 56,40 57,40 61,40 61,39 57,39 56,39 56,40 55,40 53,40 53,42 55,42 55,43 62,43 62,44 66,44 66,45 69,45 69,46 71,46 71,45 70,45 70,44 68,44 68,43 65,43 65,42 z M 126,110 127,110 127,109 126,109 126,110 125,110 125,111 126,111 z M 12,85 13,85 13,86 15,86 15,87 17,87 17,88 20,88 20,89 23,89 23,90 25,90 26,90 26,91 27,91 29,91 37,91 37,92 39,92 39,91 38,91 38,90 32,90 32,89 26,89 26,88 23,88 23,87 19,87 19,86 17,86 17,85 15,85 15,84 13,84 13,83 11,83 11,82 10,82 10,81 9,81 9,80 7,80 7,81 8,81 8,82 9,82 9,83 10,83 10,84 12,84 z M 67,113 67,114 70,114 70,115 73,115 73,116 74,116 76,116 76,117 79,117 89,117 89,115 90,115 90,114 89,114 89,115 88,115 88,113 89,113 89,112 88,112 88,113 87,113 87,114 86,114 86,115 85,115 85,116 82,116 82,115 75,115 74,115 74,114 73,114 71,114 71,113 69,113 68,113 68,112 67,112 65,112 65,113 z M 26,62 26,63 27,63 28,63 28,62 27,62 z M 115,39 115,38 114,38 113,38 113,39 114,39 115,39 115,40 116,40 116,41 118,41 118,40 117,40 117,39 116,39 z M 61,106 61,105 60,105 59,105 59,106 60,106 z M 95,114 95,115 96,115 99,115 99,114 97,114 z M 63,112 65,112 65,111 63,111 63,110 62,110 62,111 63,111 z M 9,62 8,62 8,63 9,63 z M 118,42 119,42 119,41 118,41 z" fill="#ff3000" fill-opacity="0.10588235294117647" id="xff3000_r255_g48_b0_a0.10588235294117647_shape1" /></g><g id="xff3d00_r255_g61_b0_a0.615686274509804"><path d="M 32,72 32,71 29,71 29,70 28,70 28,69 31,69 31,68 33,68 33,67 31,67 31,66 30,66 30,65 32,65 36,65 36,67 38,67 38,68 42,68 42,67 43,67 43,66 44,66 44,67 45,67 45,68 46,68 46,66 47,66 47,65 44,65 44,64 51,64 51,63 49,63 49,62 46,62 46,63 40,63 40,62 39,62 39,63 38,63 38,62 36,62 36,61 35,61 35,60 36,60 36,59 37,59 49,59 49,58 50,58 50,57 53,57 53,56 57,56 57,57 62,57 62,58 66,58 66,59 69,59 69,58 67,58 67,57 66,57 66,56 65,56 65,54 63,54 63,53 65,53 65,52 68,52 68,51 73,51 73,50 77,50 77,51 78,51 78,50 79,50 79,51 88,51 88,52 92,52 92,50 97,50 97,49 99,49 99,48 101,48 101,47 100,47 100,46 99,46 99,45 103,45 103,46 104,46 104,47 105,47 105,48 107,48 107,47 110,47 110,48 111,48 111,47 112,47 112,48 118,48 118,47 121,47 121,46 121,44 120,44 120,43 122,43 122,44 124,44 124,45 130,45 130,46 133,46 133,47 134,47 134,48 135,48 135,47 137,47 137,48 138,48 138,53 137,53 137,52 136,52 136,54 137,54 137,56 136,56 136,58 137,58 137,60 138,60 138,62 139,62 139,64 140,64 140,66 141,66 141,68 142,68 142,70 143,70 143,71 144,71 144,73 145,73 145,80 144,80 144,77 143,77 143,75 142,75 142,73 141,73 141,71 140,71 140,68 139,68 139,66 138,66 138,64 136,64 136,65 135,65 135,64 134,64 134,63 135,63 135,61 134,61 134,58 133,58 133,57 132,57 132,55 131,55 131,54 130,54 130,53 129,53 129,52 128,52 128,51 127,51 127,50 126,50 126,49 125,49 125,53 124,53 124,55 123,55 123,54 122,54 122,53 121,53 121,52 120,52 120,51 119,51 119,53 120,53 120,54 121,54 121,55 120,55 120,56 118,56 118,55 112,55 112,56 111,56 111,54 110,54 110,53 109,53 109,52 104,52 104,51 101,51 101,52 103,52 103,53 105,53 105,54 106,54 106,55 104,55 104,56 102,56 102,57 99,57 99,58 95,58 90,58 90,57 87,57 87,58 88,58 88,59 90,59 90,60 88,60 88,61 87,61 87,62 86,62 86,63 83,63 83,64 82,64 82,65 81,65 81,66 83,66 83,65 86,65 86,66 84,66 84,68 83,68 83,69 82,69 82,72 83,72 83,73 84,73 85,73 85,75 84,75 84,77 83,77 83,78 82,78 82,79 81,79 81,80 76,80 76,79 72,79 72,78 71,78 71,77 69,77 69,76 68,76 68,75 66,75 66,74 64,74 64,75 59,75 59,76 60,76 60,77 57,77 57,76 47,76 47,75 43,75 43,76 44,76 44,77 43,77 43,78 44,78 44,79 45,79 45,80 43,80 43,79 42,79 42,80 43,80 43,81 44,81 44,82 41,82 41,81 36,81 36,80 31,80 31,79 33,79 33,78 32,78 32,77 33,77 33,75 31,75 31,74 32,74 32,73 33,73 33,74 35,74 35,73 34,73 34,72 z M 66,64 67,64 67,65 68,65 69,65 69,64 68,64 68,62 69,62 70,62 70,61 71,61 71,59 70,59 70,60 69,60 69,61 67,61 67,62 64,62 64,63 62,63 62,64 64,64 z M 34,69 31,69 31,70 34,70 z M 52,62 52,61 51,61 50,61 50,62 51,62 z M 53,70 59,70 59,69 53,69 53,70 52,70 52,71 53,71 z M 135,57 135,56 134,56 134,57 z M 82,73 82,74 83,74 83,73 z M 43,69 43,68 42,68 42,69 z M 42,74 41,74 41,75 42,75 z M 85,58 85,59 86,59 87,59 87,58 86,58 85,58 85,57 84,57 83,57 83,58 84,58 z M 49,61 49,60 48,60 47,60 47,61 48,61 z M 117,50 117,51 118,51 118,50 z" fill="#ff3d00" fill-opacity="0.615686274509804" id="xff3d00_r255_g61_b0_a0.615686274509804_shape1" /></g><g id="xff5400_r255_g84_b0_a1.0"><path d="M 45,82 45,81 43,81 43,80 45,80 45,79 44,79 44,78 43,78 43,77 44,77 44,76 43,76 43,75 44,75 45,75 47,75 47,76 49,76 57,76 57,77 60,77 60,76 59,76 59,75 64,75 64,74 66,74 66,75 68,75 68,76 69,76 69,77 71,77 71,78 72,78 72,79 76,79 76,80 79,80 81,80 81,79 82,79 82,78 83,78 83,77 84,77 84,75 85,75 85,72 82,72 82,71 82,69 83,69 83,68 84,68 84,66 86,66 86,65 83,65 83,66 81,66 81,65 82,65 82,64 83,64 83,63 86,63 86,62 87,62 87,61 88,61 88,60 90,60 90,59 88,59 88,58 87,58 87,57 90,57 90,58 92,58 99,58 99,57 102,57 102,56 104,56 104,55 106,55 106,54 105,54 105,52 108,52 109,52 109,53 110,53 110,54 111,54 111,55 111,56 112,56 112,55 118,55 118,56 120,56 120,55 121,55 121,54 120,54 120,53 119,53 119,51 120,51 120,52 121,52 121,53 122,53 122,54 123,54 123,55 124,55 124,53 125,53 125,49 126,49 126,50 127,50 127,51 128,51 128,52 129,52 129,53 130,53 130,54 131,54 131,55 132,55 132,57 133,57 133,58 134,58 134,61 135,61 135,63 134,63 134,64 135,64 135,65 136,65 136,64 138,64 138,66 139,66 139,68 140,68 140,71 141,71 141,73 142,73 142,75 143,75 143,77 144,77 144,78 141,78 141,79 142,79 142,80 140,80 140,83 138,83 138,84 135,84 135,82 135,81 134,81 134,80 130,80 130,79 128,79 128,76 127,76 127,74 126,74 126,73 125,73 125,74 124,74 124,71 126,71 126,70 125,70 125,69 123,69 123,68 121,68 121,67 119,67 119,65 118,65 118,64 117,64 117,63 112,63 111,63 111,64 112,64 112,66 110,66 110,65 108,65 108,64 109,64 109,63 108,63 108,62 106,62 106,63 102,63 100,63 100,64 98,64 98,65 97,65 97,66 97,67 99,67 99,66 101,66 101,67 103,67 104,67 104,68 105,68 105,69 107,69 107,70 110,70 110,71 109,71 109,72 108,72 108,73 107,73 107,74 106,74 106,75 104,75 104,76 101,76 101,77 100,77 100,76 94,76 94,75 93,75 93,78 92,78 92,79 91,79 91,80 90,80 90,81 89,81 88,81 88,82 87,82 86,82 86,83 85,83 82,83 82,84 81,84 81,85 79,85 79,86 82,86 82,87 81,87 81,88 80,88 80,89 79,89 79,90 78,90 78,91 75,91 75,92 74,92 74,93 70,93 70,95 67,95 67,94 69,94 69,93 67,93 67,92 65,92 65,91 64,91 64,90 62,90 62,89 60,89 60,88 59,88 59,87 58,87 58,85 54,85 54,84 52,84 52,83 50,83 50,82 48,82 48,83 47,83 47,82 z M 125,68 127,68 127,69 128,69 128,70 129,70 129,69 130,69 130,68 131,68 131,66 129,66 129,67 128,67 128,68 127,68 127,65 126,65 126,66 125,66 z M 124,66 123,66 123,67 124,67 z M 73,89 73,88 72,88 72,87 72,86 71,86 71,85 70,85 70,84 69,84 69,83 68,83 67,83 67,84 68,84 68,85 69,85 69,86 69,87 68,87 68,88 69,88 69,89 70,89 71,89 71,88 72,88 72,89 72,90 73,90 74,90 74,89 z M 88,72 87,72 87,73 86,73 86,74 87,74 87,73 88,73 z M 57,79 58,79 58,78 57,78 z M 108,53 107,53 107,54 108,54 z M 138,74 138,75 139,75 139,76 140,76 140,75 139,75 139,74 z M 68,87 68,86 67,86 66,86 66,87 67,87 z" fill="#ff5400" fill-opacity="1.0" id="xff5400_r255_g84_b0_a1.0_shape1" /></g><g id="xff6600_r255_g102_b0_a1.0"><path d="M 126,95 120,95 120,96 123,96 123,97 122,97 122,98 120,98 120,99 118,99 118,104 117,104 117,105 116,105 116,104 115,104 115,103 116,103 116,100 115,100 115,101 113,101 113,102 111,102 111,103 108,103 108,104 106,104 102,104 102,105 101,105 101,104 100,104 100,103 102,103 102,102 106,102 106,101 107,101 107,100 108,100 108,99 104,99 104,96 105,96 105,95 99,95 99,96 96,96 96,97 95,97 95,98 94,98 94,99 92,99 92,100 90,100 90,101 88,101 88,100 89,100 89,99 91,99 91,98 93,98 93,97 94,97 94,96 95,96 95,95 96,95 96,94 98,94 98,92 100,92 100,91 101,91 101,90 102,90 102,89 103,89 103,91 107,91 107,90 109,90 109,88 105,88 105,89 103,89 103,87 101,87 101,88 99,88 99,87 98,87 98,85 99,85 99,84 98,84 98,85 97,85 97,84 95,84 95,85 93,85 93,86 91,86 91,87 89,87 89,88 88,88 88,89 86,89 86,90 84,90 84,91 81,91 81,92 85,92 85,91 87,91 87,92 86,92 86,93 84,93 84,94 83,94 83,93 80,93 80,92 77,92 77,93 76,93 76,94 75,94 75,95 72,95 72,96 71,96 71,97 68,97 68,98 62,98 62,97 63,97 63,96 65,96 65,95 64,95 64,94 63,94 63,93 61,93 61,92 58,92 58,91 59,91 59,90 58,90 58,89 56,89 56,88 54,88 54,87 52,87 52,86 49,86 49,85 47,85 47,84 45,84 45,83 44,83 44,81 45,81 45,82 47,82 47,83 48,83 48,82 50,82 50,83 52,83 52,84 54,84 54,85 58,85 58,87 59,87 59,88 60,88 60,89 62,89 62,90 64,90 64,91 65,91 65,92 67,92 67,93 69,93 69,94 67,94 67,95 70,95 70,93 74,93 74,92 75,92 75,91 78,91 78,90 79,90 79,89 80,89 80,90 83,90 83,89 85,89 85,88 84,88 84,87 83,87 83,88 82,88 82,89 80,89 80,88 81,88 81,87 82,87 82,86 79,86 79,85 81,85 81,84 82,84 82,83 86,83 86,82 88,82 88,81 90,81 90,80 91,80 91,79 92,79 92,78 93,78 93,75 94,75 94,76 100,76 100,77 101,77 101,76 104,76 104,75 106,75 106,74 107,74 107,73 108,73 108,72 109,72 109,71 110,71 110,70 107,70 107,69 105,69 105,68 104,68 104,67 101,67 101,66 99,66 99,67 97,67 97,65 98,65 98,64 100,64 100,63 106,63 106,62 108,62 108,63 109,63 109,64 108,64 108,65 110,65 110,66 112,66 112,64 111,64 111,63 117,63 117,64 118,64 118,65 119,65 119,67 121,67 121,68 123,68 123,69 125,69 125,70 126,70 126,71 124,71 124,74 125,74 125,73 126,73 126,74 127,74 127,76 128,76 128,79 130,79 130,80 134,80 134,81 135,81 135,84 138,84 138,83 140,83 140,80 142,80 142,82 141,82 141,84 139,84 139,85 138,85 138,87 135,87 135,86 134,86 134,87 133,87 133,88 132,88 132,90 131,90 131,91 132,91 132,92 133,92 133,91 134,91 134,90 139,90 139,91 138,91 138,92 136,92 136,93 135,93 135,94 134,94 134,96 133,96 133,97 132,97 132,94 130,94 130,95 128,95 128,94 127,94 127,98 126,98 z M 122,69 120,69 120,68 119,68 119,70 120,70 120,71 122,71 z M 84,84 83,84 83,85 82,85 82,86 83,86 83,85 84,85 z M 86,87 86,86 87,86 87,85 89,85 89,84 92,84 92,82 91,82 89,82 89,83 87,83 87,84 86,84 86,85 85,85 85,86 84,86 84,87 z M 123,85 124,85 124,84 123,84 123,83 126,83 126,84 128,84 128,83 127,83 127,82 125,82 122,82 120,82 120,83 119,83 119,82 117,82 117,83 112,83 112,85 115,85 115,84 117,84 117,85 119,85 119,86 123,86 z M 106,84 107,84 107,85 107,86 106,86 106,87 107,87 107,86 108,86 108,85 109,85 109,84 108,84 107,84 107,83 108,83 108,82 107,82 107,81 105,81 105,82 103,82 103,81 102,81 102,82 103,82 103,84 104,84 105,84 105,83 106,83 z M 109,97 109,98 111,98 112,98 112,97 111,97 z M 117,94 117,93 114,93 114,94 z M 113,72 113,74 117,74 117,73 115,73 115,72 z M 108,74 108,76 109,76 110,76 110,75 109,75 109,74 z M 115,76 113,76 113,77 114,77 114,78 115,78 117,78 117,77 115,77 z M 110,84 111,84 111,83 110,83 z M 111,90 111,89 110,89 110,90 z M 105,66 105,67 106,67 106,68 107,68 107,67 106,67 106,66 z M 123,75 123,76 124,76 124,75 z M 110,87 109,87 109,88 110,88 z M 123,92 123,93 124,93 124,92 z" fill="#ff6600" fill-opacity="1.0" id="xff6600_r255_g102_b0_a1.0_shape1" /><path d="M 68,86 68,87 67,87 66,87 66,86 67,86 z" fill="#ff6600" fill-opacity="1.0" id="xff6600_r255_g102_b0_a1.0_shape2" /></g><g id="xff3c00_r255_g60_b0_a0.6627450980392157"><path d="M 78,103 78,102 75,102 75,101 72,101 72,100 69,100 69,101 68,101 68,102 67,102 67,101 64,101 62,101 62,100 64,100 64,99 66,99 66,98 69,98 69,97 71,97 71,96 73,96 79,96 80,96 80,94 81,94 85,94 85,93 86,93 86,94 88,94 88,95 87,95 87,96 86,96 86,97 87,97 90,97 90,98 91,98 91,99 89,99 89,100 88,100 88,101 90,101 90,100 92,100 92,99 94,99 94,98 96,98 96,99 95,99 95,100 96,100 99,100 99,101 99,102 97,102 97,103 96,103 96,105 95,105 95,106 93,106 93,107 95,107 95,106 98,106 98,105 103,105 103,104 106,104 106,105 107,105 107,104 109,104 109,103 111,103 111,106 114,106 114,104 112,104 112,103 115,103 115,107 114,107 114,109 111,109 111,110 113,110 113,111 110,111 110,110 109,110 109,109 101,109 98,109 98,110 95,110 95,109 94,109 94,110 93,110 93,109 92,109 92,108 86,108 86,107 86,106 82,106 82,105 83,105 83,104 81,104 81,105 80,105 80,104 77,104 77,103 z M 85,102 84,102 84,103 85,103 z M 87,107 88,107 88,106 87,106 z M 87,101 87,102 88,102 88,101 z" fill="#ff3c00" fill-opacity="0.6627450980392157" id="xff3c00_r255_g60_b0_a0.6627450980392157_shape1" /></g><g id="xff3b00_r255_g59_b0_a0.8823529411764706"><path d="M 96,94 96,95 95,95 95,96 94,96 94,97 93,97 93,98 92,98 92,97 91,97 91,98 90,98 90,97 89,97 86,97 86,96 87,96 87,95 88,95 88,94 87,94 86,94 86,92 87,92 87,91 86,91 85,91 85,92 84,92 82,92 81,92 81,91 82,91 84,91 84,90 86,90 86,89 88,89 88,88 89,88 89,87 90,87 91,87 91,86 92,86 93,86 93,85 94,85 95,85 95,84 96,84 97,84 97,85 98,85 98,87 99,87 99,88 101,88 101,87 103,87 103,89 102,89 102,90 101,90 101,91 100,91 100,92 98,92 98,94 z M 91,88 90,88 90,89 91,89 z" fill="#ff3b00" fill-opacity="0.8823529411764706" id="xff3b00_r255_g59_b0_a0.8823529411764706_shape1" /></g><g id="xff4600_r255_g70_b0_a0.8941176470588236"><path d="M 134,101 133,101 133,102 132,102 132,101 131,101 131,102 126,102 126,103 124,103 123,103 123,102 124,102 125,102 125,101 124,101 123,101 123,102 122,102 122,103 120,103 120,104 119,104 119,103 118,103 118,99 119,99 120,99 120,98 121,98 122,98 122,97 123,97 123,96 120,96 120,95 122,95 126,95 126,98 127,98 127,94 128,94 128,95 130,95 130,94 132,94 132,97 133,97 133,96 134,96 134,98 133,98 133,99 135,99 135,100 134,100 z" fill="#ff4600" fill-opacity="0.8941176470588236" id="xff4600_r255_g70_b0_a0.8941176470588236_shape1" /></g><g id="xff3500_r255_g53_b0_a0.5607843137254902"><path d="M 51,93 53,93 53,92 51,92 51,91 49,91 49,90 48,90 48,89 47,89 47,88 48,88 49,88 49,89 50,89 51,89 52,89 52,90 53,90 54,90 54,91 55,91 57,91 57,92 59,92 60,92 60,93 61,93 62,93 62,94 63,94 63,95 62,95 62,96 63,96 63,97 62,97 57,97 57,98 56,98 56,97 54,97 53,97 53,96 52,96 51,96 51,95 50,95 50,94 49,94 49,93 49,92 51,92 z" fill="#ff3500" fill-opacity="0.5607843137254902" id="xff3500_r255_g53_b0_a0.5607843137254902_shape1" /></g><g id="xff5800_r255_g88_b0_a0.9686274509803922"><path d="M 99,95 105,95 105,96 104,96 104,99 108,99 108,100 107,100 107,101 106,101 106,102 102,102 102,103 100,103 100,104 101,104 101,105 98,105 96,105 96,103 97,103 97,102 99,102 99,101 99,100 95,100 95,99 96,99 96,98 95,98 95,97 96,97 96,96 99,96 z" fill="#ff5800" fill-opacity="0.9686274509803922" id="xff5800_r255_g88_b0_a0.9686274509803922_shape1" /></g><g id="xff6100_r255_g97_b0_a0.5450980392156862"><path d="M 33,81 32,81 32,80 33,80 36,80 36,81 38,81 41,81 41,82 44,82 44,83 43,83 43,84 44,84 44,83 45,83 45,84 47,84 47,85 48,85 48,86 49,86 49,88 47,88 47,89 48,89 48,90 47,90 47,91 46,91 46,90 44,90 44,89 46,89 46,88 45,88 45,87 43,87 43,86 40,86 40,85 38,85 38,84 37,84 37,83 35,83 35,82 33,82 z" fill="#ff6100" fill-opacity="0.5450980392156862" id="xff6100_r255_g97_b0_a0.5450980392156862_shape1" /></g><g id="xff7c00_r255_g124_b0_a0.3137254901960784"><path d="M 15,69 15,68 20,68 20,69 19,69 19,70 20,70 20,71 21,71 21,69 22,69 22,70 24,70 25,70 25,71 26,71 27,71 27,72 26,72 25,72 25,73 26,73 26,74 27,74 27,75 28,75 28,77 27,77 27,76 26,76 25,76 25,75 24,75 24,74 22,74 22,73 20,73 20,72 18,72 17,72 17,71 16,71 14,71 8,71 8,69 z" fill="#ff7c00" fill-opacity="0.3137254901960784" id="xff7c00_r255_g124_b0_a0.3137254901960784_shape1" /></g><g id="xff4100_r255_g65_b0_a0.6470588235294118"><path d="M 129,107 129,108 127,108 127,107 126,107 126,108 120,108 120,107 118,107 118,108 117,108 117,106 118,106 120,106 120,105 122,105 125,105 125,104 127,104 127,103 132,103 133,103 133,104 134,104 135,104 135,105 134,105 134,106 134,107 133,107 132,107 z" fill="#ff4100" fill-opacity="0.6470588235294118" id="xff4100_r255_g65_b0_a0.6470588235294118_shape1" /></g><g id="xff7e00_r255_g126_b0_a0.1411764705882353"><path d="M 13,83 13,84 15,84 15,85 17,85 17,86 19,86 19,87 23,87 23,88 26,88 26,89 32,89 32,90 38,90 38,91 39,91 39,92 37,92 37,91 34,91 26,91 26,90 23,90 23,89 20,89 20,88 17,88 17,87 15,87 15,86 13,86 13,85 12,85 12,84 10,84 10,83 9,83 9,82 8,82 8,81 7,81 7,80 9,80 9,81 10,81 10,82 11,82 11,83 z" fill="#ff7e00" fill-opacity="0.1411764705882353" id="xff7e00_r255_g126_b0_a0.1411764705882353_shape1" /></g><g id="xff6900_r255_g105_b0_a0.5529411764705883"><path d="M 65,54 65,56 66,56 66,57 67,57 67,58 69,58 69,59 66,59 66,58 62,58 62,57 57,57 57,56 54,56 43,56 43,55 49,55 50,55 50,54 51,54 58,54 58,55 61,55 61,54 z" fill="#ff6900" fill-opacity="0.5529411764705883" id="xff6900_r255_g105_b0_a0.5529411764705883_shape1" /><path d="M 50,91 51,91 51,92 50,92 49,92 49,91 z" fill="#ff6900" fill-opacity="0.5529411764705883" id="xff6900_r255_g105_b0_a0.5529411764705883_shape2" /></g><g id="xff6500_r255_g101_b0_a0.1843137254901961"><path d="M 123,113 123,114 122,114 122,115 120,115 120,116 117,116 117,117 115,117 111,117 111,118 109,118 109,117 107,117 107,118 106,118 106,119 105,119 105,120 104,120 104,121 103,121 103,122 102,122 102,123 99,123 99,122 101,122 101,121 102,121 102,120 103,120 103,119 104,119 104,118 105,118 105,117 106,117 106,116 107,116 107,115 111,115 111,116 112,116 112,115 111,115 111,114 112,114 112,113 113,113 113,112 114,112 114,111 115,111 115,113 114,113 114,115 113,115 113,116 115,116 115,115 118,115 118,114 121,114 121,113 122,113 122,112 124,112 124,113 z" fill="#ff6500" fill-opacity="0.1843137254901961" id="xff6500_r255_g101_b0_a0.1843137254901961_shape1" /></g><g id="xff7100_r255_g113_b0_a0.47843137254901963"><path d="M 46,63 46,62 49,62 49,63 51,63 51,64 44,64 44,65 42,65 42,66 40,66 40,65 38,65 38,64 36,64 36,63 34,63 34,62 32,62 32,61 29,61 29,60 26,60 26,59 34,59 36,59 36,60 34,60 33,60 33,61 34,61 36,61 36,62 38,62 38,63 39,63 39,62 40,62 40,63 z" fill="#ff7100" fill-opacity="0.47843137254901963" id="xff7100_r255_g113_b0_a0.47843137254901963_shape1" /></g><g id="xffc100_r255_g193_b0_a1.0"><path d="M 117,83 117,82 119,82 119,83 120,83 120,82 127,82 127,83 128,83 128,84 126,84 126,83 123,83 123,84 124,84 124,85 123,85 123,86 119,86 119,85 117,85 117,84 115,84 115,85 112,85 112,83 z" fill="#ffc100" fill-opacity="1.0" id="xffc100_r255_g193_b0_a1.0_shape1" /><path d="M 117,73 117,74 113,74 113,72 115,72 115,73 z" fill="#ffc100" fill-opacity="1.0" id="xffc100_r255_g193_b0_a1.0_shape2" /><path d="M 117,94 114,94 114,93 117,93 z" fill="#ffc100" fill-opacity="1.0" id="xffc100_r255_g193_b0_a1.0_shape3" /></g><g id="xff6100_r255_g97_b0_a0.5803921568627451"><path d="M 50,99 50,98 48,98 48,97 52,97 52,98 53,98 53,97 56,97 56,98 57,98 57,97 58,97 62,97 62,98 61,98 61,99 62,99 62,98 66,98 66,99 64,99 64,100 62,100 62,101 58,101 58,100 56,100 52,100 52,99 z" fill="#ff6100" fill-opacity="0.5803921568627451" id="xff6100_r255_g97_b0_a0.5803921568627451_shape1" /></g><g id="xff3900_r255_g57_b0_a0.7843137254901961"><path d="M 134,95 135,95 135,94 136,94 136,93 137,93 137,92 138,92 138,91 139,91 140,91 140,92 140,93 139,93 139,94 139,95 139,97 140,97 140,99 139,99 139,100 138,100 136,100 136,101 135,101 135,102 134,102 133,102 133,101 134,101 134,100 135,100 135,99 133,99 133,98 134,98 134,96 z" fill="#ff3900" fill-opacity="0.7843137254901961" id="xff3900_r255_g57_b0_a0.7843137254901961_shape1" /></g><g id="xff7500_r255_g117_b0_a0.06666666666666667"><path d="M 66,45 66,44 62,44 62,43 55,43 55,42 53,42 53,40 56,40 56,41 62,41 62,42 65,42 65,43 68,43 68,44 70,44 70,45 71,45 71,46 69,46 69,45 z" fill="#ff7500" fill-opacity="0.06666666666666667" id="xff7500_r255_g117_b0_a0.06666666666666667_shape1" /></g><g id="xff6900_r255_g105_b0_a0.16862745098039217"><path d="M 16,60 16,61 12,61 12,62 9,62 9,61 10,61 11,61 11,60 12,60 13,60 13,59 14,59 17,59 17,58 20,58 27,58 27,59 26,59 26,60 24,60 z" fill="#ff6900" fill-opacity="0.16862745098039217" id="xff6900_r255_g105_b0_a0.16862745098039217_shape1" /></g><g id="xff6200_r255_g98_b0_a0.25882352941176473"><path d="M 40,97 43,97 43,98 47,98 47,99 49,99 49,98 50,98 50,99 52,99 52,100 55,100 56,100 56,101 55,101 50,101 50,100 47,100 45,100 45,99 42,99 41,99 41,98 40,98 39,98 39,97 38,97 37,97 37,96 36,96 35,96 35,95 36,95 38,95 38,96 40,96 z" fill="#ff6200" fill-opacity="0.25882352941176473" id="xff6200_r255_g98_b0_a0.25882352941176473_shape1" /></g><g id="xff6200_r255_g98_b0_a0.5764705882352941"><path d="M 112,113 112,111 113,111 113,109 114,109 114,107 115,107 115,104 116,104 116,105 117,105 117,104 119,104 119,105 120,105 120,106 117,106 117,108 118,108 118,109 117,109 117,110 116,110 116,111 114,111 114,112 113,112 113,113 z" fill="#ff6200" fill-opacity="0.5764705882352941" id="xff6200_r255_g98_b0_a0.5764705882352941_shape1" /><path d="M 51,93 51,92 52,92 53,92 53,93 52,93 z" fill="#ff6200" fill-opacity="0.5764705882352941" id="xff6200_r255_g98_b0_a0.5764705882352941_shape2" /></g><g id="xff6200_r255_g98_b0_a0.3176470588235294"><path d="M 71,114 74,114 74,115 82,115 82,117 76,117 76,116 73,116 73,115 71,115 70,115 70,114 69,114 67,114 67,113 65,113 65,112 68,112 68,113 71,113 z" fill="#ff6200" fill-opacity="0.3176470588235294" id="xff6200_r255_g98_b0_a0.3176470588235294_shape1" /></g><g id="xff4d00_r255_g77_b0_a1.0"><path d="M 134,90 134,91 133,91 133,92 132,92 132,91 131,91 131,90 132,90 132,89 132,88 133,88 133,87 134,87 134,86 135,86 135,87 137,87 138,87 138,89 139,89 139,90 z" fill="#ff4d00" fill-opacity="1.0" id="xff4d00_r255_g77_b0_a1.0_shape1" /></g><g id="xff3900_r255_g57_b0_a0.5725490196078431"><path d="M 142,86 142,90 141,90 141,89 140,89 140,90 139,90 139,89 138,89 138,87 139,87 139,86 140,86 140,84 141,84 141,83 143,83 143,82 144,82 144,84 143,84 143,86 z" fill="#ff3900" fill-opacity="0.5725490196078431" id="xff3900_r255_g57_b0_a0.5725490196078431_shape1" /></g><g id="xff5700_r255_g87_b0_a0.8705882352941177"><path d="M 75,95 75,94 76,94 76,93 77,93 77,92 80,92 80,93 83,93 83,94 80,94 80,95 79,95 79,96 72,96 72,95 z" fill="#ff5700" fill-opacity="0.8705882352941177" id="xff5700_r255_g87_b0_a0.8705882352941177_shape1" /></g><g id="xff6300_r255_g99_b0_a0.8392156862745098"><path d="M 131,102 131,101 132,101 132,102 133,102 133,103 127,103 127,104 124,104 124,105 122,105 122,104 121,104 121,105 119,105 119,104 120,104 120,103 121,103 122,103 122,102 123,102 123,103 125,103 126,103 126,102 127,102 128,102 z" fill="#ff6300" fill-opacity="0.8392156862745098" id="xff6300_r255_g99_b0_a0.8392156862745098_shape1" /></g><g id="xff6300_r255_g99_b0_a0.6274509803921569"><path d="M 71,59 71,61 70,61 70,62 68,62 68,64 69,64 69,65 68,65 67,65 67,64 66,64 65,64 62,64 62,63 64,63 64,62 66,62 67,62 67,61 68,61 69,61 69,60 70,60 70,59 z" fill="#ff6300" fill-opacity="0.6274509803921569" id="xff6300_r255_g99_b0_a0.6274509803921569_shape1" /></g><g id="xff6300_r255_g99_b0_a1.0"><path d="M 69,83 69,84 70,84 70,85 71,85 71,86 72,86 72,88 71,88 71,89 69,89 69,88 68,88 68,87 69,87 69,85 68,85 68,84 67,84 67,83 z" fill="#ff6300" fill-opacity="1.0" id="xff6300_r255_g99_b0_a1.0_shape1" /></g><g id="xff5800_r255_g88_b0_a1.0"><path d="M 89,84 89,85 87,85 87,86 86,86 86,87 84,87 84,86 85,86 85,85 86,85 86,84 87,84 87,83 89,83 89,82 92,82 92,84 z" fill="#ff5800" fill-opacity="1.0" id="xff5800_r255_g88_b0_a1.0_shape1" /></g><g id="xff6500_r255_g101_b0_a0.14901960784313725"><path d="M 13,76 12,76 12,75 10,75 10,74 9,74 9,73 11,73 11,74 13,74 13,75 15,75 15,76 16,76 16,77 18,77 18,78 16,78 15,78 15,77 14,77 13,77 z" fill="#ff6500" fill-opacity="0.14901960784313725" id="xff6500_r255_g101_b0_a0.14901960784313725_shape1" /></g><g id="xff6900_r255_g105_b0_a0.36470588235294116"><path d="M 76,105 76,106 64,106 62,106 62,105 64,105 z" fill="#ff6900" fill-opacity="0.36470588235294116" id="xff6900_r255_g105_b0_a0.36470588235294116_shape1" /></g><g id="xff6800_r255_g104_b0_a0.49019607843137253"><path d="M 85,107 81,107 81,106 79,106 79,105 76,105 74,105 74,104 77,104 78,104 80,104 80,105 82,105 82,106 84,106 85,106 86,106 86,107 z" fill="#ff6800" fill-opacity="0.49019607843137253" id="xff6800_r255_g104_b0_a0.49019607843137253_shape1" /></g><g id="xff5700_r255_g87_b0_a1.0"><path d="M 109,90 107,90 107,91 103,91 103,89 105,89 105,88 109,88 z" fill="#ff5700" fill-opacity="1.0" id="xff5700_r255_g87_b0_a1.0_shape1" /></g><g id="xff5a00_r255_g90_b0_a1.0"><path d="M 120,71 120,70 119,70 119,69 119,68 120,68 120,69 122,69 122,71 z" fill="#ff5a00" fill-opacity="1.0" id="xff5a00_r255_g90_b0_a1.0_shape1" /><path d="M 109,98 109,97 112,97 112,98 z" fill="#ff5a00" fill-opacity="1.0" id="xff5a00_r255_g90_b0_a1.0_shape2" /><path d="M 84,84 84,85 83,85 83,84 z" fill="#ff5a00" fill-opacity="1.0" id="xff5a00_r255_g90_b0_a1.0_shape3" /><path d="M 109,87 110,87 110,88 109,88 z" fill="#ff5a00" fill-opacity="1.0" id="xff5a00_r255_g90_b0_a1.0_shape4" /></g><g id="xffc800_r255_g200_b0_a1.0"><path d="M 103,83 103,82 105,82 105,81 107,81 107,82 108,82 108,83 107,83 107,84 106,84 106,83 105,83 105,84 103,84 z" fill="#ffc800" fill-opacity="1.0" id="xffc800_r255_g200_b0_a1.0_shape1" /></g><g id="xff4c00_r255_g76_b0_a0.8588235294117647"><path d="M 112,103 112,104 111,104 111,103 111,102 113,102 113,101 115,101 115,100 116,100 116,103 z" fill="#ff4c00" fill-opacity="0.8588235294117647" id="xff4c00_r255_g76_b0_a0.8588235294117647_shape1" /></g><g id="xff6a00_r255_g106_b0_a0.19215686274509805"><path d="M 130,111 130,110 131,110 131,109 132,109 132,108 134,108 134,109 133,109 133,110 132,110 132,111 131,111 131,112 130,112 130,113 128,113 128,112 129,112 129,111 z" fill="#ff6a00" fill-opacity="0.19215686274509805" id="xff6a00_r255_g106_b0_a0.19215686274509805_shape1" /></g><g id="xff6d00_r255_g109_b0_a1.0"><path d="M 127,68 128,68 128,67 129,67 129,66 130,66 131,66 131,68 130,68 130,69 129,69 129,70 128,70 128,69 127,69 z" fill="#ff6d00" fill-opacity="1.0" id="xff6d00_r255_g109_b0_a1.0_shape1" /></g><g id="xff3100_r255_g49_b0_a0.36470588235294116"><path d="M 44,67 44,66 42,66 42,65 47,65 47,66 46,66 46,68 45,68 45,67 z" fill="#ff3100" fill-opacity="0.36470588235294116" id="xff3100_r255_g49_b0_a0.36470588235294116_shape1" /></g><g id="xff6200_r255_g98_b0_a0.3803921568627451"><path d="M 86,117 86,116 85,116 85,115 87,115 87,114 88,114 88,115 89,115 89,117 z" fill="#ff6200" fill-opacity="0.3803921568627451" id="xff6200_r255_g98_b0_a0.3803921568627451_shape1" /></g><g id="xff5600_r255_g86_b0_a0.48627450980392156"><path d="M 44,89 44,88 42,88 42,87 41,87 41,86 43,86 43,87 45,87 45,88 46,88 46,89 z" fill="#ff5600" fill-opacity="0.48627450980392156" id="xff5600_r255_g86_b0_a0.48627450980392156_shape1" /></g><g id="xff6c00_r255_g108_b0_a0.49019607843137253"><path d="M 67,102 67,104 66,104 66,103 64,103 64,102 62,102 62,101 65,101 65,102 z" fill="#ff6c00" fill-opacity="0.49019607843137253" id="xff6c00_r255_g108_b0_a0.49019607843137253_shape1" /></g><g id="xff5300_r255_g83_b0_a0.9725490196078431"><path d="M 80,90 80,89 82,89 82,88 83,88 83,87 84,87 84,88 85,88 85,89 83,89 83,90 z" fill="#ff5300" fill-opacity="0.9725490196078431" id="xff5300_r255_g83_b0_a0.9725490196078431_shape1" /></g><g id="xff6700_r255_g103_b0_a0.7215686274509804"><path d="M 53,70 53,69 59,69 59,70 z" fill="#ff6700" fill-opacity="0.7215686274509804" id="xff6700_r255_g103_b0_a0.7215686274509804_shape1" /></g><g id="xff6300_r255_g99_b0_a0.7058823529411765"><path d="M 114,106 111,106 111,104 114,104 z" fill="#ff6300" fill-opacity="0.7058823529411765" id="xff6300_r255_g99_b0_a0.7058823529411765_shape1" /></g><g id="xff5c00_r255_g92_b0_a0.43529411764705883"><path d="M 131,43 133,43 133,45 132,45 132,44 130,44 130,43 129,43 129,42 131,42 z" fill="#ff5c00" fill-opacity="0.43529411764705883" id="xff5c00_r255_g92_b0_a0.43529411764705883_shape1" /></g><g id="xff6300_r255_g99_b0_a0.6588235294117647"><path d="M 133,104 133,102 134,102 135,102 135,103 136,103 136,105 135,105 135,104 134,104 z" fill="#ff6300" fill-opacity="0.6588235294117647" id="xff6300_r255_g99_b0_a0.6588235294117647_shape1" /></g><g id="xff6800_r255_g104_b0_a0.7137254901960784"><path d="M 141,83 141,82 142,82 142,81 143,81 143,80 145,80 145,81 144,81 144,82 143,82 143,83 z" fill="#ff6800" fill-opacity="0.7137254901960784" id="xff6800_r255_g104_b0_a0.7137254901960784_shape1" /></g><g id="xff6200_r255_g98_b0_a0.3137254901960784"><path d="M 42,94 42,95 41,95 41,94 40,94 40,93 39,93 39,92 40,92 41,92 41,93 42,93 z" fill="#ff6200" fill-opacity="0.3137254901960784" id="xff6200_r255_g98_b0_a0.3137254901960784_shape1" /></g><g id="xff6200_r255_g98_b0_a0.03529411764705882"><path d="M 56,40 56,39 60,39 61,39 61,40 60,40 z" fill="#ff6200" fill-opacity="0.03529411764705882" id="xff6200_r255_g98_b0_a0.03529411764705882_shape1" /></g><g id="xff6400_r255_g100_b0_a0.5411764705882353"><path d="M 91,109 93,109 93,110 92,110 92,111 91,111 91,112 90,112 90,110 91,110 z" fill="#ff6400" fill-opacity="0.5411764705882353" id="xff6400_r255_g100_b0_a0.5411764705882353_shape1" /></g><g id="xff4c00_r255_g76_b0_a1.0"><path d="M 117,77 117,78 116,78 115,78 114,78 114,77 113,77 113,76 114,76 115,76 115,77 116,77 z" fill="#ff4c00" fill-opacity="1.0" id="xff4c00_r255_g76_b0_a1.0_shape1" /></g><g id="xff6800_r255_g104_b0_a1.0"><path d="M 127,65 127,68 125,68 125,66 126,66 126,65 z" fill="#ff6800" fill-opacity="1.0" id="xff6800_r255_g104_b0_a1.0_shape1" /></g><g id="xff6700_r255_g103_b0_a0.42745098039215684"><path d="M 20,69 20,68 21,68 22,68 22,69 21,69 21,70 19,70 19,69 z" fill="#ff6700" fill-opacity="0.42745098039215684" id="xff6700_r255_g103_b0_a0.42745098039215684_shape1" /></g><g id="xff5400_r255_g84_b0_a0.43137254901960786"><path d="M 42,57 42,56 43,56 46,56 46,57 44,57 z" fill="#ff5400" fill-opacity="0.43137254901960786" id="xff5400_r255_g84_b0_a0.43137254901960786_shape1" /></g><g id="xff6100_r255_g97_b0_a1.0"><path d="M 73,89 74,89 74,90 72,90 72,88 73,88 z" fill="#ff6100" fill-opacity="1.0" id="xff6100_r255_g97_b0_a1.0_shape1" /><path d="M 123,67 123,66 124,66 124,67 z" fill="#ff6100" fill-opacity="1.0" id="xff6100_r255_g97_b0_a1.0_shape2" /></g><g id="xff8400_r255_g132_b0_a0.4392156862745098"><path d="M 82,117 82,116 83,116 86,116 86,117 84,117 z" fill="#ff8400" fill-opacity="0.4392156862745098" id="xff8400_r255_g132_b0_a0.4392156862745098_shape1" /></g><g id="xff6100_r255_g97_b0_a0.1843137254901961"><path d="M 95,115 95,114 96,114 99,114 99,115 97,115 z" fill="#ff6100" fill-opacity="0.1843137254901961" id="xff6100_r255_g97_b0_a0.1843137254901961_shape1" /></g><g id="xff6100_r255_g97_b0_a0.18823529411764706"><path d="M 116,41 116,40 115,40 115,39 117,39 117,40 118,40 118,41 z" fill="#ff6100" fill-opacity="0.18823529411764706" id="xff6100_r255_g97_b0_a0.18823529411764706_shape1" /></g><g id="xff5900_r255_g89_b0_a0.8823529411764706"><path d="M 139,86 139,87 138,87 138,85 139,85 139,84 140,84 140,86 z" fill="#ff5900" fill-opacity="0.8823529411764706" id="xff5900_r255_g89_b0_a0.8823529411764706_shape1" /></g><g id="xff6100_r255_g97_b0_a0.9215686274509803"><path d="M 141,79 141,78 144,78 144,80 143,80 143,79 z" fill="#ff6100" fill-opacity="0.9215686274509803" id="xff6100_r255_g97_b0_a0.9215686274509803_shape1" /></g><g id="xff6500_r255_g101_b0_a0.06666666666666667"><path d="M 9,73 7,73 7,72 7,71 8,71 8,72 9,72 z" fill="#ff6500" fill-opacity="0.06666666666666667" id="xff6500_r255_g101_b0_a0.06666666666666667_shape1" /></g><g id="xff6100_r255_g97_b0_a0.3254901960784314"><path d="M 33,82 33,83 30,83 30,82 z" fill="#ff6100" fill-opacity="0.3254901960784314" id="xff6100_r255_g97_b0_a0.3254901960784314_shape1" /></g><g id="xff4200_r255_g66_b0_a0.396078431372549"><path d="M 34,69 34,70 31,70 31,69 z" fill="#ff4200" fill-opacity="0.396078431372549" id="xff4200_r255_g66_b0_a0.396078431372549_shape1" /></g><g id="xff5500_r255_g85_b0_a0.43137254901960786"><path d="M 40,56 41,56 41,58 39,58 39,57 40,57 z" fill="#ff5500" fill-opacity="0.43137254901960786" id="xff5500_r255_g85_b0_a0.43137254901960786_shape1" /></g><g id="xff5e00_r255_g94_b0_a0.43529411764705883"><path d="M 47,55 47,54 50,54 50,55 z" fill="#ff5e00" fill-opacity="0.43529411764705883" id="xff5e00_r255_g94_b0_a0.43529411764705883_shape1" /></g><g id="xff5a00_r255_g90_b0_a0.4666666666666667"><path d="M 49,91 49,92 47,92 47,90 48,90 48,91 z" fill="#ff5a00" fill-opacity="0.4666666666666667" id="xff5a00_r255_g90_b0_a0.4666666666666667_shape1" /></g><g id="xff5a00_r255_g90_b0_a0.4823529411764706"><path d="M 61,54 61,55 58,55 58,54 z" fill="#ff5a00" fill-opacity="0.4823529411764706" id="xff5a00_r255_g90_b0_a0.4823529411764706_shape1" /></g><g id="xff4b00_r255_g75_b0_a0.8313725490196079"><path d="M 63,96 63,94 64,94 64,95 65,95 65,96 z" fill="#ff4b00" fill-opacity="0.8313725490196079" id="xff4b00_r255_g75_b0_a0.8313725490196079_shape1" /></g><g id="xff6200_r255_g98_b0_a0.788235294117647"><path d="M 95,106 95,105 98,105 98,106 z" fill="#ff6200" fill-opacity="0.788235294117647" id="xff6200_r255_g98_b0_a0.788235294117647_shape1" /></g><g id="xff5a00_r255_g90_b0_a0.8274509803921568"><path d="M 101,52 101,51 104,51 104,52 z" fill="#ff5a00" fill-opacity="0.8274509803921568" id="xff5a00_r255_g90_b0_a0.8274509803921568_shape1" /></g><g id="xff5000_r255_g80_b0_a1.0"><path d="M 109,85 108,85 108,86 107,86 107,84 108,84 109,84 z" fill="#ff5000" fill-opacity="1.0" id="xff5000_r255_g80_b0_a1.0_shape1" /></g><g id="xff5d00_r255_g93_b0_a1.0"><path d="M 108,74 109,74 109,75 110,75 110,76 109,76 108,76 z" fill="#ff5d00" fill-opacity="1.0" id="xff5d00_r255_g93_b0_a1.0_shape1" /></g><g id="xff6600_r255_g102_b0_a0.3215686274509804"><path d="M 28,62 28,63 27,63 26,63 26,62 27,62 z" fill="#ff6600" fill-opacity="0.3215686274509804" id="xff6600_r255_g102_b0_a0.3215686274509804_shape1" /></g><g id="xff6400_r255_g100_b0_a0.4470588235294118"><path d="M 28,72 30,72 30,73 28,73 z" fill="#ff6400" fill-opacity="0.4470588235294118" id="xff6400_r255_g100_b0_a0.4470588235294118_shape1" /></g><g id="xff6300_r255_g99_b0_a0.4980392156862745"><path d="M 30,74 30,73 31,73 32,73 32,74 31,74 z" fill="#ff6300" fill-opacity="0.4980392156862745" id="xff6300_r255_g99_b0_a0.4980392156862745_shape1" /></g><g id="xff5c00_r255_g92_b0_a0.4117647058823529"><path d="M 33,61 33,60 34,60 34,61 z" fill="#ff5c00" fill-opacity="0.4117647058823529" id="xff5c00_r255_g92_b0_a0.4117647058823529_shape1" /><path d="M 45,90 46,90 46,91 45,91 z" fill="#ff5c00" fill-opacity="0.4117647058823529" id="xff5c00_r255_g92_b0_a0.4117647058823529_shape2" /></g><g id="xff6300_r255_g99_b0_a0.43137254901960786"><path d="M 42,95 42,94 43,94 44,94 44,95 43,95 z" fill="#ff6300" fill-opacity="0.43137254901960786" id="xff6300_r255_g99_b0_a0.43137254901960786_shape1" /></g><g id="xff6c00_r255_g108_b0_a0.4823529411764706"><path d="M 46,96 44,96 44,95 46,95 z" fill="#ff6c00" fill-opacity="0.4823529411764706" id="xff6c00_r255_g108_b0_a0.4823529411764706_shape1" /></g><g id="xff7200_r255_g114_b0_a0.5058823529411764"><path d="M 47,97 46,97 46,96 47,96 48,96 48,97 z" fill="#ff7200" fill-opacity="0.5058823529411764" id="xff7200_r255_g114_b0_a0.5058823529411764_shape1" /></g><g id="xff3a00_r255_g58_b0_a0.396078431372549"><path d="M 48,61 47,61 47,60 48,60 49,60 49,61 z" fill="#ff3a00" fill-opacity="0.396078431372549" id="xff3a00_r255_g58_b0_a0.396078431372549_shape1" /></g><g id="xff5d00_r255_g93_b0_a0.27058823529411763"><path d="M 48,98 49,98 49,99 48,99 47,99 47,98 z" fill="#ff5d00" fill-opacity="0.27058823529411763" id="xff5d00_r255_g93_b0_a0.27058823529411763_shape1" /></g><g id="xff4e00_r255_g78_b0_a0.7686274509803922"><path d="M 50,86 51,86 51,87 50,87 49,87 49,86 z" fill="#ff4e00" fill-opacity="0.7686274509803922" id="xff4e00_r255_g78_b0_a0.7686274509803922_shape1" /></g><g id="xff3300_r255_g51_b0_a0.3843137254901961"><path d="M 51,61 52,61 52,62 51,62 50,62 50,61 z" fill="#ff3300" fill-opacity="0.3843137254901961" id="xff3300_r255_g51_b0_a0.3843137254901961_shape1" /></g><g id="xff8200_r255_g130_b0_a0.8352941176470589"><path d="M 51,88 52,88 52,89 51,89 50,89 50,88 z" fill="#ff8200" fill-opacity="0.8352941176470589" id="xff8200_r255_g130_b0_a0.8352941176470589_shape1" /></g><g id="xff5500_r255_g85_b0_a0.796078431372549"><path d="M 53,87 53,88 52,88 51,88 51,87 52,87 z" fill="#ff5500" fill-opacity="0.796078431372549" id="xff5500_r255_g85_b0_a0.796078431372549_shape1" /></g><g id="xff6b00_r255_g107_b0_a0.796078431372549"><path d="M 52,88 53,88 53,89 53,90 52,90 52,89 z" fill="#ff6b00" fill-opacity="0.796078431372549" id="xff6b00_r255_g107_b0_a0.796078431372549_shape1" /></g><g id="xff3d00_r255_g61_b0_a0.7607843137254902"><path d="M 53,89 53,88 54,88 55,88 55,89 54,89 z" fill="#ff3d00" fill-opacity="0.7607843137254902" id="xff3d00_r255_g61_b0_a0.7607843137254902_shape1" /></g><g id="xff7200_r255_g114_b0_a0.8156862745098039"><path d="M 55,89 55,90 54,90 53,90 53,89 54,89 z" fill="#ff7200" fill-opacity="0.8156862745098039" id="xff7200_r255_g114_b0_a0.8156862745098039_shape1" /></g><g id="xff7600_r255_g118_b0_a0.803921568627451"><path d="M 54,90 56,90 56,91 54,91 z" fill="#ff7600" fill-opacity="0.803921568627451" id="xff7600_r255_g118_b0_a0.803921568627451_shape1" /></g><g id="xff4f00_r255_g79_b0_a0.796078431372549"><path d="M 55,90 55,89 56,89 57,89 57,90 56,90 z" fill="#ff4f00" fill-opacity="0.796078431372549" id="xff4f00_r255_g79_b0_a0.796078431372549_shape1" /></g><g id="xff6600_r255_g102_b0_a0.8235294117647058"><path d="M 58,91 56,91 56,90 58,90 z" fill="#ff6600" fill-opacity="0.8235294117647058" id="xff6600_r255_g102_b0_a0.8235294117647058_shape1" /></g><g id="xff6400_r255_g100_b0_a0.14901960784313725"><path d="M 60,106 59,106 59,105 60,105 61,105 61,106 z" fill="#ff6400" fill-opacity="0.14901960784313725" id="xff6400_r255_g100_b0_a0.14901960784313725_shape1" /></g><g id="xff6900_r255_g105_b0_a0.08627450980392157"><path d="M 63,112 63,111 64,111 65,111 65,112 64,112 z" fill="#ff6900" fill-opacity="0.08627450980392157" id="xff6900_r255_g105_b0_a0.08627450980392157_shape1" /></g><g id="xff4400_r255_g68_b0_a0.3803921568627451"><path d="M 65,102 65,101 66,101 67,101 67,102 66,102 z" fill="#ff4400" fill-opacity="0.3803921568627451" id="xff4400_r255_g68_b0_a0.3803921568627451_shape1" /></g><g id="xff5c00_r255_g92_b0_a0.8196078431372549"><path d="M 69,97 69,98 68,98 68,97 z" fill="#ff5c00" fill-opacity="0.8196078431372549" id="xff5c00_r255_g92_b0_a0.8196078431372549_shape1" /><path d="M 84,93 85,93 85,94 84,94 z" fill="#ff5c00" fill-opacity="0.8196078431372549" id="xff5c00_r255_g92_b0_a0.8196078431372549_shape2" /></g><g id="xff3000_r255_g48_b0_a0.3686274509803922"><path d="M 83,105 81,105 81,104 83,104 z" fill="#ff3000" fill-opacity="0.3686274509803922" id="xff3000_r255_g48_b0_a0.3686274509803922_shape1" /></g><g id="xff5c00_r255_g92_b0_a1.0"><path d="M 83,86 82,86 82,85 83,85 z" fill="#ff5c00" fill-opacity="1.0" id="xff5c00_r255_g92_b0_a1.0_shape1" /><path d="M 106,87 106,86 107,86 107,87 z" fill="#ff5c00" fill-opacity="1.0" id="xff5c00_r255_g92_b0_a1.0_shape2" /></g><g id="xff6700_r255_g103_b0_a0.8705882352941177"><path d="M 83,72 85,72 85,73 83,73 z" fill="#ff6700" fill-opacity="0.8705882352941177" id="xff6700_r255_g103_b0_a0.8705882352941177_shape1" /></g><g id="xff5b00_r255_g91_b0_a0.8470588235294118"><path d="M 86,58 87,58 87,59 86,59 85,59 85,58 z" fill="#ff5b00" fill-opacity="0.8470588235294118" id="xff5b00_r255_g91_b0_a0.8470588235294118_shape1" /></g><g id="xff6500_r255_g101_b0_a0.6980392156862745"><path d="M 93,106 95,106 95,107 93,107 z" fill="#ff6500" fill-opacity="0.6980392156862745" id="xff6500_r255_g101_b0_a0.6980392156862745_shape1" /></g><g id="xff5f00_r255_g95_b0_a1.0"><path d="M 98,85 98,84 99,84 99,85 z" fill="#ff5f00" fill-opacity="1.0" id="xff5f00_r255_g95_b0_a1.0_shape1" /><path d="M 123,75 124,75 124,76 123,76 z" fill="#ff5f00" fill-opacity="1.0" id="xff5f00_r255_g95_b0_a1.0_shape2" /></g><g id="xff6a00_r255_g106_b0_a0.9176470588235294"><path d="M 103,53 103,52 104,52 105,52 105,53 104,53 z" fill="#ff6a00" fill-opacity="0.9176470588235294" id="xff6a00_r255_g106_b0_a0.9176470588235294_shape1" /></g><g id="xff6000_r255_g96_b0_a1.0"><path d="M 105,66 106,66 106,67 105,67 z" fill="#ff6000" fill-opacity="1.0" id="xff6000_r255_g96_b0_a1.0_shape1" /><path d="M 111,90 110,90 110,89 111,89 z" fill="#ff6000" fill-opacity="1.0" id="xff6000_r255_g96_b0_a1.0_shape2" /></g><g id="xff5800_r255_g88_b0_a0.44313725490196076"><path d="M 109,111 110,111 110,112 109,112 108,112 108,111 z" fill="#ff5800" fill-opacity="0.44313725490196076" id="xff5800_r255_g88_b0_a0.44313725490196076_shape1" /></g><g id="xff4500_r255_g69_b0_a0.4"><path d="M 113,110 111,110 111,109 113,109 z" fill="#ff4500" fill-opacity="0.4" id="xff4500_r255_g69_b0_a0.4_shape1" /></g><g id="xff6300_r255_g99_b0_a0.09803921568627451"><path d="M 115,39 113,39 113,38 115,38 z" fill="#ff6300" fill-opacity="0.09803921568627451" id="xff6300_r255_g99_b0_a0.09803921568627451_shape1" /></g><g id="xff6200_r255_g98_b0_a0.611764705882353"><path d="M 118,107 120,107 120,108 118,108 z" fill="#ff6200" fill-opacity="0.611764705882353" id="xff6200_r255_g98_b0_a0.611764705882353_shape1" /></g><g id="xff6000_r255_g96_b0_a0.5294117647058824"><path d="M 118,109 118,108 119,108 120,108 120,109 119,109 z" fill="#ff6000" fill-opacity="0.5294117647058824" id="xff6000_r255_g96_b0_a0.5294117647058824_shape1" /></g><g id="xff6300_r255_g99_b0_a0.9372549019607843"><path d="M 125,101 125,102 124,102 123,102 123,101 124,101 z" fill="#ff6300" fill-opacity="0.9372549019607843" id="xff6300_r255_g99_b0_a0.9372549019607843_shape1" /></g><g id="xff6500_r255_g101_b0_a0.5333333333333333"><path d="M 135,107 134,107 134,106 134,105 135,105 135,106 z" fill="#ff6500" fill-opacity="0.5333333333333333" id="xff6500_r255_g101_b0_a0.5333333333333333_shape1" /></g><g id="xff6400_r255_g100_b0_a0.7019607843137254"><path d="M 137,54 136,54 136,53 136,52 137,52 137,53 z" fill="#ff6400" fill-opacity="0.7019607843137254" id="xff6400_r255_g100_b0_a0.7019607843137254_shape1" /></g><g id="xff6400_r255_g100_b0_a0.7764705882352941"><path d="M 136,101 136,100 137,100 138,100 138,101 137,101 z" fill="#ff6400" fill-opacity="0.7764705882352941" id="xff6400_r255_g100_b0_a0.7764705882352941_shape1" /></g><g id="xff5500_r255_g85_b0_a0.7686274509803922"><path d="M 142,80 142,79 143,79 143,80 143,81 142,81 z" fill="#ff5500" fill-opacity="0.7686274509803922" id="xff5500_r255_g85_b0_a0.7686274509803922_shape1" /></g><g id="xff6200_r255_g98_b0_a0.03137254901960784"><path d="M 9,63 8,63 8,62 9,62 z" fill="#ff6200" fill-opacity="0.03137254901960784" id="xff6200_r255_g98_b0_a0.03137254901960784_shape1" /></g><g id="xff5900_r255_g89_b0_a0.25098039215686274"><path d="M 20,71 20,70 21,70 21,71 z" fill="#ff5900" fill-opacity="0.25098039215686274" id="xff5900_r255_g89_b0_a0.25098039215686274_shape1" /></g><g id="xff6800_r255_g104_b0_a0.39215686274509803"><path d="M 27,72 28,72 28,73 27,73 z" fill="#ff6800" fill-opacity="0.39215686274509803" id="xff6800_r255_g104_b0_a0.39215686274509803_shape1" /></g><g id="xff6700_r255_g103_b0_a0.35294117647058826"><path d="M 29,60 29,61 28,61 28,60 z" fill="#ff6700" fill-opacity="0.35294117647058826" id="xff6700_r255_g103_b0_a0.35294117647058826_shape1" /></g><g id="xff6400_r255_g100_b0_a0.38823529411764707"><path d="M 32,80 32,81 31,81 31,80 z" fill="#ff6400" fill-opacity="0.38823529411764707" id="xff6400_r255_g100_b0_a0.38823529411764707_shape1" /></g><g id="xff5500_r255_g85_b0_a0.4"><path d="M 35,61 34,61 34,60 35,60 z" fill="#ff5500" fill-opacity="0.4" id="xff5500_r255_g85_b0_a0.4_shape1" /></g><g id="xff6800_r255_g104_b0_a0.10980392156862745"><path d="M 35,94 35,95 34,95 34,94 z" fill="#ff6800" fill-opacity="0.10980392156862745" id="xff6800_r255_g104_b0_a0.10980392156862745_shape1" /></g><g id="xff6000_r255_g96_b0_a0.42745098039215684"><path d="M 37,84 36,84 36,83 37,83 z" fill="#ff6000" fill-opacity="0.42745098039215684" id="xff6000_r255_g96_b0_a0.42745098039215684_shape1" /></g><g id="xff5b00_r255_g91_b0_a0.4117647058823529"><path d="M 37,65 37,64 38,64 38,65 z" fill="#ff5b00" fill-opacity="0.4117647058823529" id="xff5b00_r255_g91_b0_a0.4117647058823529_shape1" /></g><g id="xff4d00_r255_g77_b0_a0.41568627450980394"><path d="M 40,86 39,86 39,85 40,85 z" fill="#ff4d00" fill-opacity="0.41568627450980394" id="xff4d00_r255_g77_b0_a0.41568627450980394_shape1" /></g><g id="xff6100_r255_g97_b0_a0.5058823529411764"><path d="M 42,57 41,57 41,56 42,56 z" fill="#ff6100" fill-opacity="0.5058823529411764" id="xff6100_r255_g97_b0_a0.5058823529411764_shape1" /></g><g id="xff5800_r255_g88_b0_a0.4117647058823529"><path d="M 42,66 42,67 41,67 41,66 z" fill="#ff5800" fill-opacity="0.4117647058823529" id="xff5800_r255_g88_b0_a0.4117647058823529_shape1" /></g><g id="xff5600_r255_g86_b0_a0.8117647058823529"><path d="M 42,74 42,75 41,75 41,74 z" fill="#ff5600" fill-opacity="0.8117647058823529" id="xff5600_r255_g86_b0_a0.8117647058823529_shape1" /></g><g id="xff6700_r255_g103_b0_a0.47843137254901963"><path d="M 42,67 42,66 43,66 43,67 z" fill="#ff6700" fill-opacity="0.47843137254901963" id="xff6700_r255_g103_b0_a0.47843137254901963_shape1" /></g><g id="xff3e00_r255_g62_b0_a0.4"><path d="M 42,69 42,68 43,68 43,69 z" fill="#ff3e00" fill-opacity="0.4" id="xff3e00_r255_g62_b0_a0.4_shape1" /></g><g id="xff5200_r255_g82_b0_a0.8117647058823529"><path d="M 43,79 43,80 42,80 42,79 z" fill="#ff5200" fill-opacity="0.8117647058823529" id="xff5200_r255_g82_b0_a0.8117647058823529_shape1" /></g><g id="xff5f00_r255_g95_b0_a0.7137254901960784"><path d="M 44,84 43,84 43,83 44,83 z" fill="#ff5f00" fill-opacity="0.7137254901960784" id="xff5f00_r255_g95_b0_a0.7137254901960784_shape1" /></g><g id="xff6200_r255_g98_b0_a0.4627450980392157"><path d="M 44,88 44,89 43,89 43,88 z" fill="#ff6200" fill-opacity="0.4627450980392157" id="xff6200_r255_g98_b0_a0.4627450980392157_shape1" /></g><g id="xff6c00_r255_g108_b0_a0.36470588235294116"><path d="M 44,95 44,96 43,96 43,95 z" fill="#ff6c00" fill-opacity="0.36470588235294116" id="xff6c00_r255_g108_b0_a0.36470588235294116_shape1" /></g><g id="xff6f00_r255_g111_b0_a0.39215686274509803"><path d="M 46,96 46,97 45,97 45,96 z" fill="#ff6f00" fill-opacity="0.39215686274509803" id="xff6f00_r255_g111_b0_a0.39215686274509803_shape1" /></g><g id="xff6f00_r255_g111_b0_a0.36470588235294116"><path d="M 48,98 47,98 47,97 48,97 z" fill="#ff6f00" fill-opacity="0.36470588235294116" id="xff6f00_r255_g111_b0_a0.36470588235294116_shape1" /></g><g id="xff5b00_r255_g91_b0_a0.7803921568627451"><path d="M 48,85 49,85 49,86 48,86 z" fill="#ff5b00" fill-opacity="0.7803921568627451" id="xff5b00_r255_g91_b0_a0.7803921568627451_shape1" /></g><g id="xff6100_r255_g97_b0_a0.5137254901960784"><path d="M 49,90 49,91 48,91 48,90 z" fill="#ff6100" fill-opacity="0.5137254901960784" id="xff6100_r255_g97_b0_a0.5137254901960784_shape1" /></g><g id="xff6100_r255_g97_b0_a0.45098039215686275"><path d="M 49,93 48,93 48,92 49,92 z" fill="#ff6100" fill-opacity="0.45098039215686275" id="xff6100_r255_g97_b0_a0.45098039215686275_shape1" /></g><g id="xff8200_r255_g130_b0_a0.8235294117647058"><path d="M 50,87 50,88 49,88 49,87 z" fill="#ff8200" fill-opacity="0.8235294117647058" id="xff8200_r255_g130_b0_a0.8235294117647058_shape1" /></g><g id="xff7900_r255_g121_b0_a0.7529411764705882"><path d="M 49,89 49,88 50,88 50,89 z" fill="#ff7900" fill-opacity="0.7529411764705882" id="xff7900_r255_g121_b0_a0.7529411764705882_shape1" /></g><g id="xff6a00_r255_g106_b0_a0.7843137254901961"><path d="M 50,88 50,87 51,87 51,88 z" fill="#ff6a00" fill-opacity="0.7843137254901961" id="xff6a00_r255_g106_b0_a0.7843137254901961_shape1" /></g><g id="xff5900_r255_g89_b0_a0.8196078431372549"><path d="M 51,86 52,86 52,87 51,87 z" fill="#ff5900" fill-opacity="0.8196078431372549" id="xff5900_r255_g89_b0_a0.8196078431372549_shape1" /></g><g id="xff6400_r255_g100_b0_a0.7176470588235294"><path d="M 53,70 53,71 52,71 52,70 z" fill="#ff6400" fill-opacity="0.7176470588235294" id="xff6400_r255_g100_b0_a0.7176470588235294_shape1" /></g><g id="xff5b00_r255_g91_b0_a0.45098039215686275"><path d="M 53,97 53,98 52,98 52,97 z" fill="#ff5b00" fill-opacity="0.45098039215686275" id="xff5b00_r255_g91_b0_a0.45098039215686275_shape1" /></g><g id="xff5d00_r255_g93_b0_a0.8392156862745098"><path d="M 53,88 53,87 54,87 54,88 z" fill="#ff5d00" fill-opacity="0.8392156862745098" id="xff5d00_r255_g93_b0_a0.8392156862745098_shape1" /></g><g id="xff5200_r255_g82_b0_a0.8274509803921568"><path d="M 56,89 55,89 55,88 56,88 z" fill="#ff5200" fill-opacity="0.8274509803921568" id="xff5200_r255_g82_b0_a0.8274509803921568_shape1" /></g><g id="xff3e00_r255_g62_b0_a0.803921568627451"><path d="M 58,79 57,79 57,78 58,78 z" fill="#ff3e00" fill-opacity="0.803921568627451" id="xff3e00_r255_g62_b0_a0.803921568627451_shape1" /></g><g id="xff5a00_r255_g90_b0_a0.8431372549019608"><path d="M 58,89 58,90 57,90 57,89 z" fill="#ff5a00" fill-opacity="0.8431372549019608" id="xff5a00_r255_g90_b0_a0.8431372549019608_shape1" /></g><g id="xff6800_r255_g104_b0_a0.7843137254901961"><path d="M 58,91 58,92 57,92 57,91 z" fill="#ff6800" fill-opacity="0.7843137254901961" id="xff6800_r255_g104_b0_a0.7843137254901961_shape1" /></g><g id="xff5a00_r255_g90_b0_a0.403921568627451"><path d="M 58,101 57,101 57,100 58,100 z" fill="#ff5a00" fill-opacity="0.403921568627451" id="xff5a00_r255_g90_b0_a0.403921568627451_shape1" /></g><g id="xff5700_r255_g87_b0_a0.8274509803921568"><path d="M 58,91 58,90 59,90 59,91 z" fill="#ff5700" fill-opacity="0.8274509803921568" id="xff5700_r255_g87_b0_a0.8274509803921568_shape1" /></g><g id="xff5600_r255_g86_b0_a0.8235294117647058"><path d="M 61,92 61,93 60,93 60,92 z" fill="#ff5600" fill-opacity="0.8235294117647058" id="xff5600_r255_g86_b0_a0.8235294117647058_shape1" /></g><g id="xff8800_r255_g136_b0_a0.807843137254902"><path d="M 61,99 61,98 62,98 62,99 z" fill="#ff8800" fill-opacity="0.807843137254902" id="xff8800_r255_g136_b0_a0.807843137254902_shape1" /></g><g id="xff5800_r255_g88_b0_a0.41568627450980394"><path d="M 61,101 62,101 62,102 61,102 z" fill="#ff5800" fill-opacity="0.41568627450980394" id="xff5800_r255_g88_b0_a0.41568627450980394_shape1" /></g><g id="xff3d00_r255_g61_b0_a0.8313725490196079"><path d="M 62,93 63,93 63,94 62,94 z" fill="#ff3d00" fill-opacity="0.8313725490196079" id="xff3d00_r255_g61_b0_a0.8313725490196079_shape1" /></g><g id="xff6300_r255_g99_b0_a0.8196078431372549"><path d="M 62,95 63,95 63,96 62,96 z" fill="#ff6300" fill-opacity="0.8196078431372549" id="xff6300_r255_g99_b0_a0.8196078431372549_shape1" /></g><g id="xff6100_r255_g97_b0_a0.054901960784313725"><path d="M 63,110 63,111 62,111 62,110 z" fill="#ff6100" fill-opacity="0.054901960784313725" id="xff6100_r255_g97_b0_a0.054901960784313725_shape1" /></g><g id="xff6a00_r255_g106_b0_a0.396078431372549"><path d="M 64,102 64,103 63,103 63,102 z" fill="#ff6a00" fill-opacity="0.396078431372549" id="xff6a00_r255_g106_b0_a0.396078431372549_shape1" /></g><g id="xff7c00_r255_g124_b0_a0.3764705882352941"><path d="M 65,104 65,103 66,103 66,104 z" fill="#ff7c00" fill-opacity="0.3764705882352941" id="xff7c00_r255_g124_b0_a0.3764705882352941_shape1" /></g><g id="xff5f00_r255_g95_b0_a0.403921568627451"><path d="M 78,105 79,105 79,106 78,106 z" fill="#ff5f00" fill-opacity="0.403921568627451" id="xff5f00_r255_g95_b0_a0.403921568627451_shape1" /></g><g id="xff6100_r255_g97_b0_a0.807843137254902"><path d="M 80,96 79,96 79,95 80,95 z" fill="#ff6100" fill-opacity="0.807843137254902" id="xff6100_r255_g97_b0_a0.807843137254902_shape1" /></g><g id="xff6300_r255_g99_b0_a0.7764705882352941"><path d="M 83,73 83,74 82,74 82,73 z" fill="#ff6300" fill-opacity="0.7764705882352941" id="xff6300_r255_g99_b0_a0.7764705882352941_shape1" /></g><g id="xff6100_r255_g97_b0_a0.8156862745098039"><path d="M 83,57 84,57 84,58 83,58 z" fill="#ff6100" fill-opacity="0.8156862745098039" id="xff6100_r255_g97_b0_a0.8156862745098039_shape1" /></g><g id="xff5d00_r255_g93_b0_a0.8235294117647058"><path d="M 84,58 84,57 85,57 85,58 z" fill="#ff5d00" fill-opacity="0.8235294117647058" id="xff5d00_r255_g93_b0_a0.8235294117647058_shape1" /></g><g id="xff6200_r255_g98_b0_a0.7764705882352941"><path d="M 85,103 84,103 84,102 85,102 z" fill="#ff6200" fill-opacity="0.7764705882352941" id="xff6200_r255_g98_b0_a0.7764705882352941_shape1" /></g><g id="xff6d00_r255_g109_b0_a0.9098039215686274"><path d="M 86,74 86,73 87,73 87,74 z" fill="#ff6d00" fill-opacity="0.9098039215686274" id="xff6d00_r255_g109_b0_a0.9098039215686274_shape1" /></g><g id="xff5d00_r255_g93_b0_a0.4117647058823529"><path d="M 86,114 87,114 87,115 86,115 z" fill="#ff5d00" fill-opacity="0.4117647058823529" id="xff5d00_r255_g93_b0_a0.4117647058823529_shape1" /></g><g id="xff6600_r255_g102_b0_a0.9294117647058824"><path d="M 87,73 87,72 88,72 88,73 z" fill="#ff6600" fill-opacity="0.9294117647058824" id="xff6600_r255_g102_b0_a0.9294117647058824_shape1" /></g><g id="xff6200_r255_g98_b0_a0.7686274509803922"><path d="M 88,102 87,102 87,101 88,101 z" fill="#ff6200" fill-opacity="0.7686274509803922" id="xff6200_r255_g98_b0_a0.7686274509803922_shape1" /></g><g id="xff6100_r255_g97_b0_a0.5372549019607843"><path d="M 87,107 87,106 88,106 88,107 z" fill="#ff6100" fill-opacity="0.5372549019607843" id="xff6100_r255_g97_b0_a0.5372549019607843_shape1" /></g><g id="xff5400_r255_g84_b0_a0.4117647058823529"><path d="M 88,113 88,114 87,114 87,113 z" fill="#ff5400" fill-opacity="0.4117647058823529" id="xff5400_r255_g84_b0_a0.4117647058823529_shape1" /></g><g id="xff5200_r255_g82_b0_a0.4666666666666667"><path d="M 88,113 88,112 89,112 89,113 z" fill="#ff5200" fill-opacity="0.4666666666666667" id="xff5200_r255_g82_b0_a0.4666666666666667_shape1" /></g><g id="xff5a00_r255_g90_b0_a0.5647058823529412"><path d="M 90,112 89,112 89,111 90,111 z" fill="#ff5a00" fill-opacity="0.5647058823529412" id="xff5a00_r255_g90_b0_a0.5647058823529412_shape1" /></g><g id="xff6900_r255_g105_b0_a0.3176470588235294"><path d="M 90,115 89,115 89,114 90,114 z" fill="#ff6900" fill-opacity="0.3176470588235294" id="xff6900_r255_g105_b0_a0.3176470588235294_shape1" /></g><g id="xff6200_r255_g98_b0_a0.9176470588235294"><path d="M 91,89 90,89 90,88 91,88 z" fill="#ff6200" fill-opacity="0.9176470588235294" id="xff6200_r255_g98_b0_a0.9176470588235294_shape1" /></g><g id="xff5200_r255_g82_b0_a0.8"><path d="M 91,97 92,97 92,98 91,98 z" fill="#ff5200" fill-opacity="0.8" id="xff5200_r255_g82_b0_a0.8_shape1" /></g><g id="xff6300_r255_g99_b0_a0.058823529411764705"><path d="M 98,124 98,123 99,123 99,124 z" fill="#ff6300" fill-opacity="0.058823529411764705" id="xff6300_r255_g99_b0_a0.058823529411764705_shape1" /></g><g id="xffc700_r255_g199_b0_a1.0"><path d="M 102,81 103,81 103,82 102,82 z" fill="#ffc700" fill-opacity="1.0" id="xffc700_r255_g199_b0_a1.0_shape1" /></g><g id="xff5700_r255_g87_b0_a0.8196078431372549"><path d="M 102,104 103,104 103,105 102,105 z" fill="#ff5700" fill-opacity="0.8196078431372549" id="xff5700_r255_g87_b0_a0.8196078431372549_shape1" /></g><g id="xff5e00_r255_g94_b0_a1.0"><path d="M 106,67 107,67 107,68 106,68 z" fill="#ff5e00" fill-opacity="1.0" id="xff5e00_r255_g94_b0_a1.0_shape1" /></g><g id="xff5c00_r255_g92_b0_a0.8156862745098039"><path d="M 107,105 106,105 106,104 107,104 z" fill="#ff5c00" fill-opacity="0.8156862745098039" id="xff5c00_r255_g92_b0_a0.8156862745098039_shape1" /></g><g id="xff4500_r255_g69_b0_a0.788235294117647"><path d="M 108,53 108,54 107,54 107,53 z" fill="#ff4500" fill-opacity="0.788235294117647" id="xff4500_r255_g69_b0_a0.788235294117647_shape1" /></g><g id="xff5c00_r255_g92_b0_a0.8392156862745098"><path d="M 109,103 109,104 108,104 108,103 z" fill="#ff5c00" fill-opacity="0.8392156862745098" id="xff5c00_r255_g92_b0_a0.8392156862745098_shape1" /></g><g id="xffc400_r255_g196_b0_a1.0"><path d="M 110,83 111,83 111,84 110,84 z" fill="#ffc400" fill-opacity="1.0" id="xffc400_r255_g196_b0_a1.0_shape1" /></g><g id="xff8600_r255_g134_b0_a0.41568627450980394"><path d="M 111,114 111,115 110,115 110,114 z" fill="#ff8600" fill-opacity="0.41568627450980394" id="xff8600_r255_g134_b0_a0.41568627450980394_shape1" /></g><g id="xff8300_r255_g131_b0_a0.43137254901960786"><path d="M 111,113 112,113 112,114 111,114 z" fill="#ff8300" fill-opacity="0.43137254901960786" id="xff8300_r255_g131_b0_a0.43137254901960786_shape1" /></g><g id="xff5a00_r255_g90_b0_a0.21568627450980393"><path d="M 112,115 112,116 111,116 111,115 z" fill="#ff5a00" fill-opacity="0.21568627450980393" id="xff5a00_r255_g90_b0_a0.21568627450980393_shape1" /></g><g id="xff5900_r255_g89_b0_a0.807843137254902"><path d="M 117,51 117,50 118,50 118,51 z" fill="#ff5900" fill-opacity="0.807843137254902" id="xff5900_r255_g89_b0_a0.807843137254902_shape1" /></g><g id="xff5200_r255_g82_b0_a0.4235294117647059"><path d="M 117,110 117,109 118,109 118,110 z" fill="#ff5200" fill-opacity="0.4235294117647059" id="xff5200_r255_g82_b0_a0.4235294117647059_shape1" /></g><g id="xff6100_r255_g97_b0_a0.2980392156862745"><path d="M 119,41 119,42 118,42 118,41 z" fill="#ff6100" fill-opacity="0.2980392156862745" id="xff6100_r255_g97_b0_a0.2980392156862745_shape1" /></g><g id="xff5c00_r255_g92_b0_a0.8"><path d="M 118,104 118,103 119,103 119,104 z" fill="#ff5c00" fill-opacity="0.8" id="xff5c00_r255_g92_b0_a0.8_shape1" /></g><g id="xff6400_r255_g100_b0_a0.796078431372549"><path d="M 122,105 121,105 121,104 122,104 z" fill="#ff6400" fill-opacity="0.796078431372549" id="xff6400_r255_g100_b0_a0.796078431372549_shape1" /></g><g id="xff5900_r255_g89_b0_a1.0"><path d="M 123,92 124,92 124,93 123,93 z" fill="#ff5900" fill-opacity="1.0" id="xff5900_r255_g89_b0_a1.0_shape1" /></g><g id="xff6600_r255_g102_b0_a0.8"><path d="M 125,104 125,105 124,105 124,104 z" fill="#ff6600" fill-opacity="0.8" id="xff6600_r255_g102_b0_a0.8_shape1" /></g><g id="xff7300_r255_g115_b0_a0.30196078431372547"><path d="M 124,112 124,111 125,111 125,112 z" fill="#ff7300" fill-opacity="0.30196078431372547" id="xff7300_r255_g115_b0_a0.30196078431372547_shape1" /></g><g id="xff7100_r255_g113_b0_a0.33725490196078434"><path d="M 125,110 126,110 126,111 125,111 z" fill="#ff7100" fill-opacity="0.33725490196078434" id="xff7100_r255_g113_b0_a0.33725490196078434_shape1" /></g><g id="xff6b00_r255_g107_b0_a0.3686274509803922"><path d="M 126,109 127,109 127,110 126,110 z" fill="#ff6b00" fill-opacity="0.3686274509803922" id="xff6b00_r255_g107_b0_a0.3686274509803922_shape1" /></g><g id="xff6300_r255_g99_b0_a0.12156862745098039"><path d="M 128,113 128,114 127,114 127,113 z" fill="#ff6300" fill-opacity="0.12156862745098039" id="xff6300_r255_g99_b0_a0.12156862745098039_shape1" /></g><g id="xff6300_r255_g99_b0_a0.6352941176470588"><path d="M 133,45 133,44 134,44 134,45 z" fill="#ff6300" fill-opacity="0.6352941176470588" id="xff6300_r255_g99_b0_a0.6352941176470588_shape1" /></g><g id="xff5300_r255_g83_b0_a0.4666666666666667"><path d="M 134,45 134,46 133,46 133,45 z" fill="#ff5300" fill-opacity="0.4666666666666667" id="xff5300_r255_g83_b0_a0.4666666666666667_shape1" /></g><g id="xff3c00_r255_g60_b0_a0.35294117647058826"><path d="M 134,46 134,47 133,47 133,46 z" fill="#ff3c00" fill-opacity="0.35294117647058826" id="xff3c00_r255_g60_b0_a0.35294117647058826_shape1" /></g><g id="xff6d00_r255_g109_b0_a0.4117647058823529"><path d="M 133,108 133,107 134,107 134,108 z" fill="#ff6d00" fill-opacity="0.4117647058823529" id="xff6d00_r255_g109_b0_a0.4117647058823529_shape1" /></g><g id="xff6400_r255_g100_b0_a0.7215686274509804"><path d="M 135,46 134,46 134,45 135,45 z" fill="#ff6400" fill-opacity="0.7215686274509804" id="xff6400_r255_g100_b0_a0.7215686274509804_shape1" /></g><g id="xff4d00_r255_g77_b0_a0.44313725490196076"><path d="M 134,47 134,46 135,46 135,47 z" fill="#ff4d00" fill-opacity="0.44313725490196076" id="xff4d00_r255_g77_b0_a0.44313725490196076_shape1" /></g><g id="xff3d00_r255_g61_b0_a0.3843137254901961"><path d="M 135,48 134,48 134,47 135,47 z" fill="#ff3d00" fill-opacity="0.3843137254901961" id="xff3d00_r255_g61_b0_a0.3843137254901961_shape1" /></g><g id="xff5100_r255_g81_b0_a0.8274509803921568"><path d="M 134,57 134,56 135,56 135,57 z" fill="#ff5100" fill-opacity="0.8274509803921568" id="xff5100_r255_g81_b0_a0.8274509803921568_shape1" /></g><g id="xff5600_r255_g86_b0_a0.8745098039215686"><path d="M 134,94 135,94 135,95 134,95 z" fill="#ff5600" fill-opacity="0.8745098039215686" id="xff5600_r255_g86_b0_a0.8745098039215686_shape1" /></g><g id="xff5300_r255_g83_b0_a0.4196078431372549"><path d="M 135,45 136,45 136,46 135,46 z" fill="#ff5300" fill-opacity="0.4196078431372549" id="xff5300_r255_g83_b0_a0.4196078431372549_shape1" /></g><g id="xff6200_r255_g98_b0_a0.7333333333333333"><path d="M 136,46 136,47 135,47 135,46 z" fill="#ff6200" fill-opacity="0.7333333333333333" id="xff6200_r255_g98_b0_a0.7333333333333333_shape1" /></g><g id="xff4f00_r255_g79_b0_a0.8352941176470589"><path d="M 136,93 136,94 135,94 135,93 z" fill="#ff4f00" fill-opacity="0.8352941176470589" id="xff4f00_r255_g79_b0_a0.8352941176470589_shape1" /></g><g id="xff6600_r255_g102_b0_a0.7490196078431373"><path d="M 135,102 135,101 136,101 136,102 z" fill="#ff6600" fill-opacity="0.7490196078431373" id="xff6600_r255_g102_b0_a0.7490196078431373_shape1" /></g><g id="xff8000_r255_g128_b0_a0.8313725490196079"><path d="M 136,102 136,103 135,103 135,102 z" fill="#ff8000" fill-opacity="0.8313725490196079" id="xff8000_r255_g128_b0_a0.8313725490196079_shape1" /></g><g id="xff5c00_r255_g92_b0_a0.8313725490196079"><path d="M 136,93 136,92 137,92 137,93 z" fill="#ff5c00" fill-opacity="0.8313725490196079" id="xff5c00_r255_g92_b0_a0.8313725490196079_shape1" /></g><g id="xff7e00_r255_g126_b0_a0.8392156862745098"><path d="M 136,102 136,101 137,101 137,102 z" fill="#ff7e00" fill-opacity="0.8392156862745098" id="xff7e00_r255_g126_b0_a0.8392156862745098_shape1" /></g><g id="xff6e00_r255_g110_b0_a0.6313725490196078"><path d="M 136,103 136,102 137,102 137,103 z" fill="#ff6e00" fill-opacity="0.6313725490196078" id="xff6e00_r255_g110_b0_a0.6313725490196078_shape1" /></g><g id="xff4c00_r255_g76_b0_a0.43529411764705883"><path d="M 136,103 137,103 137,104 136,104 z" fill="#ff4c00" fill-opacity="0.43529411764705883" id="xff4c00_r255_g76_b0_a0.43529411764705883_shape1" /></g><g id="xff5800_r255_g88_b0_a0.5137254901960784"><path d="M 138,102 137,102 137,101 138,101 z" fill="#ff5800" fill-opacity="0.5137254901960784" id="xff5800_r255_g88_b0_a0.5137254901960784_shape1" /></g><g id="xff6600_r255_g102_b0_a0.996078431372549"><path d="M 138,74 139,74 139,75 138,75 z" fill="#ff6600" fill-opacity="0.996078431372549" id="xff6600_r255_g102_b0_a0.996078431372549_shape1" /></g><g id="xff6600_r255_g102_b0_a0.9921568627450981"><path d="M 139,76 139,75 140,75 140,76 z" fill="#ff6600" fill-opacity="0.9921568627450981" id="xff6600_r255_g102_b0_a0.9921568627450981_shape1" /></g><g id="xff6400_r255_g100_b0_a0.6980392156862745"><path d="M 140,91 139,91 139,90 140,90 z" fill="#ff6400" fill-opacity="0.6980392156862745" id="xff6400_r255_g100_b0_a0.6980392156862745_shape1" /></g><g id="xff6100_r255_g97_b0_a0.6431372549019608"><path d="M 140,89 141,89 141,90 140,90 z" fill="#ff6100" fill-opacity="0.6431372549019608" id="xff6100_r255_g97_b0_a0.6431372549019608_shape1" /></g><g id="xff4800_r255_g72_b0_a0.4666666666666667"><path d="M 141,90 141,91 140,91 140,90 z" fill="#ff4800" fill-opacity="0.4666666666666667" id="xff4800_r255_g72_b0_a0.4666666666666667_shape1" /></g><g id="xff4300_r255_g67_b0_a0.4117647058823529"><path d="M 141,97 140,97 140,96 141,96 z" fill="#ff4300" fill-opacity="0.4117647058823529" id="xff4300_r255_g67_b0_a0.4117647058823529_shape1" /></g><g id="xff3c00_r255_g60_b0_a0.403921568627451"><path d="M 145,81 145,82 144,82 144,81 z" fill="#ff3c00" fill-opacity="0.403921568627451" id="xff3c00_r255_g60_b0_a0.403921568627451_shape1" /></g></svg>