<?xml version="1.0" encoding="utf-8" ?>
<svg baseProfile="full" height="150px" version="1.1" viewBox="0 0 150 150" width="150px" xmlns="http://www.w3.org/2000/svg" xmlns:ev="http://www.w3.org/2001/xml-events" xmlns:xlink="http://www.w3.org/1999/xlink"><defs /><g id="xff3000_r255_g48_b0_a0.2"><path d="M 5,60 6,60 6,56 7,56 7,54 9,54 9,53 11,53 11,52 14,52 16,52 16,51 22,51 33,51 33,50 36,50 36,49 40,49 40,48 45,48 45,47 54,47 54,46 53,46 53,44 52,44 52,39 53,39 53,37 54,37 54,36 55,36 55,35 57,35 60,35 60,34 62,34 81,34 81,33 94,33 94,34 100,34 100,35 109,35 109,34 111,34 111,33 114,33 114,32 123,32 123,33 128,33 128,34 132,34 132,35 134,35 134,36 136,36 136,37 138,37 138,38 140,38 140,39 141,39 141,40 142,40 142,41 143,41 143,43 144,43 144,46 145,46 145,55 144,55 144,56 145,56 145,60 146,60 146,63 147,63 147,65 148,65 148,61 149,61 149,58 150,58 150,88 149,88 149,91 148,91 148,96 147,96 147,99 147,101 146,101 146,103 146,104 145,104 145,105 145,106 144,106 144,107 143,107 143,109 142,109 142,110 141,110 141,111 140,111 140,113 139,113 139,114 138,114 138,115 136,115 136,116 135,116 135,117 133,117 133,118 131,118 131,119 128,119 128,120 125,120 125,121 122,121 122,122 118,122 118,123 114,123 114,124 111,124 111,125 108,125 108,126 106,126 106,127 103,127 103,128 101,128 95,128 95,127 94,127 94,125 93,125 93,124 92,124 92,123 91,123 91,124 78,124 78,123 73,123 73,122 70,122 70,121 68,121 68,120 65,120 65,119 64,119 64,118 62,118 62,117 61,117 61,115 60,115 60,114 59,114 59,113 58,113 58,112 57,112 57,111 56,111 56,110 55,110 55,109 54,109 54,108 51,108 51,107 46,107 46,106 43,106 43,105 40,105 40,104 38,104 38,103 36,103 36,102 34,102 34,101 33,101 33,100 32,100 32,99 31,99 31,98 28,98 28,97 25,97 25,96 21,96 21,95 18,95 18,94 15,94 15,93 13,93 13,92 11,92 11,91 10,91 10,90 9,90 9,89 7,89 7,87 6,87 6,86 5,86 5,83 4,83 4,76 3,76 3,67 4,67 4,65 5,65 z M 50,89 52,89 52,88 50,88 50,87 49,87 49,88 50,88 z M 88,60 88,61 87,61 87,62 86,62 86,63 83,63 83,64 82,64 82,65 81,65 81,66 83,66 83,67 84,67 84,68 83,68 83,69 82,69 82,72 83,72 83,73 84,73 84,74 85,74 85,75 84,75 84,77 83,77 83,78 82,78 82,79 81,79 81,80 76,80 76,79 72,79 72,78 71,78 71,77 69,77 69,76 68,76 68,75 66,75 66,74 64,74 64,75 59,75 59,76 60,76 60,77 57,77 57,76 47,76 47,75 43,75 43,76 44,76 44,77 42,77 42,78 44,78 44,79 45,79 45,80 44,80 43,80 43,79 42,79 42,80 43,80 43,81 44,81 44,83 45,83 45,84 46,84 46,85 49,85 49,86 51,86 51,87 53,87 53,88 55,88 55,89 53,89 53,90 55,90 55,91 58,91 58,92 60,92 60,93 62,93 62,96 63,96 63,97 62,97 62,98 69,98 69,97 71,97 71,96 78,96 80,96 80,94 84,94 88,94 88,95 87,95 87,96 86,96 86,97 90,97 90,98 91,98 91,99 89,99 89,100 88,100 88,101 90,101 90,100 92,100 92,99 94,99 94,98 96,98 96,99 95,99 95,100 98,100 98,101 99,101 99,102 97,102 97,103 96,103 96,105 100,105 100,106 101,106 101,105 104,105 104,104 106,104 106,105 107,105 107,104 110,104 110,103 111,103 111,104 112,104 112,103 115,103 115,104 116,104 116,105 117,105 117,104 118,104 118,103 119,103 119,105 121,105 121,104 122,104 122,105 124,105 124,104 127,104 127,103 133,103 133,101 134,101 134,100 135,100 135,99 133,99 133,98 134,98 134,95 135,95 135,94 136,94 136,93 137,93 137,92 138,92 138,91 139,91 139,89 139,88 138,88 138,87 139,87 139,86 140,86 140,84 141,84 141,83 142,83 142,79 143,79 143,80 144,80 144,77 143,77 143,75 142,75 142,73 141,73 141,71 140,71 140,68 139,68 139,66 138,66 138,64 136,64 136,63 135,63 135,61 134,61 134,58 133,58 133,57 132,57 132,55 131,55 131,54 130,54 130,53 129,53 129,52 128,52 128,51 127,51 127,50 126,50 126,49 125,49 125,53 124,53 124,55 123,55 123,54 122,54 122,53 121,53 121,52 120,52 120,51 119,51 119,53 120,53 120,54 121,54 121,55 120,55 120,56 118,56 118,55 111,55 111,54 110,54 110,53 109,53 109,52 104,52 104,51 101,51 101,52 102,52 102,53 105,53 105,54 106,54 106,55 103,55 103,56 102,56 102,57 99,57 99,58 95,58 90,58 90,57 86,57 86,58 85,58 85,59 87,59 87,58 88,58 88,59 90,59 90,60 z M 137,101 136,101 136,102 135,102 135,103 136,103 136,102 137,102 z M 135,57 135,56 134,56 134,57 z M 42,74 41,74 41,75 42,75 z M 107,50 107,49 106,49 106,50 z M 85,57 83,57 83,58 85,58 z M 117,50 117,51 118,51 118,50 z M 61,99 62,99 62,98 61,98 z" fill="#ff3000" fill-opacity="0.2" id="xff3000_r255_g48_b0_a0.2_shape1" /></g><g id="xff4800_r255_g72_b0_a0.9568627450980393"><path d="M 124,53 125,53 125,49 126,49 126,50 127,50 127,51 128,51 128,52 129,52 129,53 130,53 130,54 131,54 131,55 132,55 132,57 133,57 133,58 134,58 134,59 134,61 135,61 135,63 134,63 134,64 135,64 135,65 136,65 136,64 138,64 138,66 139,66 139,68 140,68 140,71 141,71 141,73 142,73 142,75 143,75 143,77 144,77 144,80 143,80 143,79 142,79 142,80 142,83 141,83 141,84 140,84 140,86 139,86 139,87 138,87 138,88 139,88 139,91 138,91 138,92 137,92 137,93 136,93 136,94 135,94 135,95 134,95 134,98 133,98 133,99 135,99 135,100 134,100 134,101 133,101 133,103 127,103 127,104 124,104 124,105 122,105 122,104 121,104 121,105 119,105 119,103 118,103 118,104 117,104 117,105 116,105 116,104 115,104 115,103 112,103 112,104 111,104 111,103 110,103 110,104 109,104 107,104 107,105 106,105 106,104 104,104 104,105 101,105 101,106 100,106 100,105 96,105 96,103 97,103 97,102 99,102 99,101 98,101 98,100 95,100 95,99 96,99 96,98 94,98 94,99 92,99 92,100 90,100 90,101 88,101 88,100 89,100 89,99 91,99 91,98 90,98 90,97 86,97 86,96 87,96 87,95 88,95 88,94 80,94 80,96 71,96 71,97 69,97 69,98 66,98 62,98 62,97 63,97 63,96 62,96 62,93 60,93 60,92 58,92 58,91 55,91 55,90 57,90 57,89 55,89 55,88 53,88 53,87 51,87 51,86 49,86 49,85 46,85 46,84 45,84 45,83 44,83 44,81 43,81 43,80 45,80 45,79 44,79 44,78 42,78 42,77 44,77 44,76 43,76 43,75 47,75 47,76 57,76 57,77 60,77 60,76 59,76 59,75 64,75 64,74 66,74 66,75 68,75 68,76 69,76 69,77 71,77 71,78 72,78 72,79 76,79 76,80 81,80 81,79 82,79 82,78 83,78 83,77 84,77 84,75 85,75 85,74 84,74 84,73 83,73 83,72 82,72 82,69 83,69 83,68 84,68 84,67 83,67 83,66 86,66 86,65 83,65 83,66 81,66 81,65 82,65 82,64 83,64 83,63 86,63 86,62 87,62 87,61 88,61 88,60 90,60 90,59 88,59 88,58 87,58 87,59 85,59 85,58 86,58 86,57 90,57 90,58 97,58 99,58 99,57 101,57 102,57 102,56 103,56 103,55 106,55 106,54 105,54 105,53 102,53 102,52 101,52 101,51 104,51 104,52 108,52 109,52 109,53 110,53 110,54 111,54 111,55 118,55 118,56 120,56 120,55 121,55 121,54 120,54 120,53 119,53 119,51 120,51 120,52 121,52 121,53 122,53 122,54 123,54 123,55 124,55 z M 108,81 105,81 105,82 104,82 104,81 101,81 101,83 102,83 102,82 103,82 103,84 104,84 105,84 105,83 106,83 106,84 107,84 107,83 108,83 z M 123,85 124,85 124,84 123,84 123,83 125,83 126,83 126,84 127,84 128,84 128,83 127,83 127,82 120,82 120,83 119,83 119,82 117,82 117,83 116,83 116,82 115,82 115,83 112,83 112,85 119,85 119,86 123,86 z M 117,94 117,93 114,93 114,94 z M 114,72 113,72 113,74 115,74 115,75 116,75 116,74 117,74 117,73 116,73 115,73 115,72 z M 92,97 91,97 91,98 92,98 z M 106,85 105,85 105,86 106,86 z M 110,84 111,84 111,83 110,83 z M 108,53 107,53 107,54 108,54 z" fill="#ff4800" fill-opacity="0.9568627450980393" id="xff4800_r255_g72_b0_a0.9568627450980393_shape1" /></g><g id="xffc100_r255_g193_b0_a1.0"><path d="M 115,83 115,82 116,82 116,83 117,83 117,82 119,82 119,83 120,83 120,82 127,82 127,83 128,83 128,84 126,84 126,83 123,83 123,84 124,84 124,85 123,85 123,86 119,86 119,85 116,85 112,85 112,83 z" fill="#ffc100" fill-opacity="1.0" id="xffc100_r255_g193_b0_a1.0_shape1" /><path d="M 117,94 114,94 114,93 117,93 z" fill="#ffc100" fill-opacity="1.0" id="xffc100_r255_g193_b0_a1.0_shape2" /></g><g id="xffc000_r255_g192_b0_a1.0"><path d="M 101,81 104,81 104,82 105,82 105,81 108,81 108,83 107,83 107,84 106,84 106,83 105,83 105,84 103,84 103,83 103,82 102,82 102,83 101,83 z" fill="#ffc000" fill-opacity="1.0" id="xffc000_r255_g192_b0_a1.0_shape1" /><path d="M 117,73 117,74 116,74 116,75 115,75 115,74 113,74 113,72 115,72 115,73 z" fill="#ffc000" fill-opacity="1.0" id="xffc000_r255_g192_b0_a1.0_shape2" /><path d="M 105,86 105,85 106,85 106,86 z" fill="#ffc000" fill-opacity="1.0" id="xffc000_r255_g192_b0_a1.0_shape3" /></g><g id="xff3900_r255_g57_b0_a0.8"><path d="M 86,65 86,66 83,66 83,65 z" fill="#ff3900" fill-opacity="0.8" id="xff3900_r255_g57_b0_a0.8_shape1" /></g><g id="xff8200_r255_g130_b0_a0.8352941176470589"><path d="M 51,88 52,88 52,89 51,89 50,89 50,88 z" fill="#ff8200" fill-opacity="0.8352941176470589" id="xff8200_r255_g130_b0_a0.8352941176470589_shape1" /></g><g id="xff7200_r255_g114_b0_a0.8156862745098039"><path d="M 55,89 55,90 54,90 53,90 53,89 54,89 z" fill="#ff7200" fill-opacity="0.8156862745098039" id="xff7200_r255_g114_b0_a0.8156862745098039_shape1" /></g><g id="xff4f00_r255_g79_b0_a0.796078431372549"><path d="M 55,90 55,89 56,89 57,89 57,90 56,90 z" fill="#ff4f00" fill-opacity="0.796078431372549" id="xff4f00_r255_g79_b0_a0.796078431372549_shape1" /></g><g id="xff5d00_r255_g93_b0_a0.8235294117647058"><path d="M 83,57 85,57 85,58 83,58 z" fill="#ff5d00" fill-opacity="0.8235294117647058" id="xff5d00_r255_g93_b0_a0.8235294117647058_shape1" /></g><g id="xff5600_r255_g86_b0_a0.8117647058823529"><path d="M 42,74 42,75 41,75 41,74 z" fill="#ff5600" fill-opacity="0.8117647058823529" id="xff5600_r255_g86_b0_a0.8117647058823529_shape1" /></g><g id="xff5200_r255_g82_b0_a0.8117647058823529"><path d="M 43,79 43,80 42,80 42,79 z" fill="#ff5200" fill-opacity="0.8117647058823529" id="xff5200_r255_g82_b0_a0.8117647058823529_shape1" /></g><g id="xff8200_r255_g130_b0_a0.8235294117647058"><path d="M 50,87 50,88 49,88 49,87 z" fill="#ff8200" fill-opacity="0.8235294117647058" id="xff8200_r255_g130_b0_a0.8235294117647058_shape1" /></g><g id="xff8800_r255_g136_b0_a0.807843137254902"><path d="M 61,99 61,98 62,98 62,99 z" fill="#ff8800" fill-opacity="0.807843137254902" id="xff8800_r255_g136_b0_a0.807843137254902_shape1" /></g><g id="xff5200_r255_g82_b0_a0.8"><path d="M 91,97 92,97 92,98 91,98 z" fill="#ff5200" fill-opacity="0.8" id="xff5200_r255_g82_b0_a0.8_shape1" /></g><g id="xff5600_r255_g86_b0_a0.803921568627451"><path d="M 106,50 106,49 107,49 107,50 z" fill="#ff5600" fill-opacity="0.803921568627451" id="xff5600_r255_g86_b0_a0.803921568627451_shape1" /></g><g id="xff4500_r255_g69_b0_a0.788235294117647"><path d="M 108,53 108,54 107,54 107,53 z" fill="#ff4500" fill-opacity="0.788235294117647" id="xff4500_r255_g69_b0_a0.788235294117647_shape1" /></g><g id="xffc400_r255_g196_b0_a1.0"><path d="M 110,83 111,83 111,84 110,84 z" fill="#ffc400" fill-opacity="1.0" id="xffc400_r255_g196_b0_a1.0_shape1" /></g><g id="xff5900_r255_g89_b0_a0.807843137254902"><path d="M 117,51 117,50 118,50 118,51 z" fill="#ff5900" fill-opacity="0.807843137254902" id="xff5900_r255_g89_b0_a0.807843137254902_shape1" /></g><g id="xff5100_r255_g81_b0_a0.8274509803921568"><path d="M 134,57 134,56 135,56 135,57 z" fill="#ff5100" fill-opacity="0.8274509803921568" id="xff5100_r255_g81_b0_a0.8274509803921568_shape1" /></g><g id="xff3600_r255_g54_b0_a0.796078431372549"><path d="M 134,64 134,63 135,63 135,64 z" fill="#ff3600" fill-opacity="0.796078431372549" id="xff3600_r255_g54_b0_a0.796078431372549_shape1" /></g><g id="xff3f00_r255_g63_b0_a0.803921568627451"><path d="M 136,63 136,64 135,64 135,63 z" fill="#ff3f00" fill-opacity="0.803921568627451" id="xff3f00_r255_g63_b0_a0.803921568627451_shape1" /></g><g id="xff3800_r255_g56_b0_a0.792156862745098"><path d="M 136,65 135,65 135,64 136,64 z" fill="#ff3800" fill-opacity="0.792156862745098" id="xff3800_r255_g56_b0_a0.792156862745098_shape1" /></g><g id="xff8000_r255_g128_b0_a0.8313725490196079"><path d="M 136,102 136,103 135,103 135,102 z" fill="#ff8000" fill-opacity="0.8313725490196079" id="xff8000_r255_g128_b0_a0.8313725490196079_shape1" /></g><g id="xff7e00_r255_g126_b0_a0.8392156862745098"><path d="M 136,102 136,101 137,101 137,102 z" fill="#ff7e00" fill-opacity="0.8392156862745098" id="xff7e00_r255_g126_b0_a0.8392156862745098_shape1" /></g></svg>