<?xml version="1.0" encoding="utf-8" ?>
<svg xmlns="http://www.w3.org/2000/svg" xmlns:ev="http://www.w3.org/2001/xml-events" xmlns:xlink="http://www.w3.org/1999/xlink" baseProfile="full" height="342px" version="1.1" viewBox="0 0 342 342" width="342px">
  <defs/>
  <g id="xff0000_r255_g0_b0_a1.0">
    <path d="M 244,198 246,198 246,199 247,199 247,201 248,201 248,202 249,202 249,207 248,207 248,209 247,209 247,216 248,216 248,222 248,229 248,230 249,230 249,231 249,238 248,238 248,239 247,239 247,240 246,240 246,241 245,241 245,242 242,242 242,244 241,244 241,246 240,246 240,247 239,247 239,248 238,248 238,249 237,249 237,250 236,250 236,252 235,252 235,254 234,254 234,255 233,255 233,256 232,256 232,257 231,257 229,257 229,258 225,258 220,258 220,259 218,259 218,260 215,260 215,261 210,261 210,260 208,260 208,259 207,259 207,258 206,258 206,257 205,257 205,254 204,254 204,253 203,253 203,252 201,252 201,251 200,251 200,250 199,250 199,234 198,234 198,233 197,233 197,228 196,228 196,226 195,226 195,218 194,218 194,216 193,216 193,211 192,211 192,210 191,210 191,208 191,188 191,187 192,187 192,186 192,183 193,183 193,182 196,182 196,181 197,181 197,180 198,180 198,179 199,179 199,178 200,178 200,177 201,177 201,176 203,176 203,174 207,174 207,173 209,173 209,172 212,172 212,173 214,173 214,174 215,174 215,175 217,175 217,176 218,176 218,177 219,177 219,178 221,178 221,179 222,179 222,180 223,180 223,181 224,181 224,182 225,182 225,183 227,183 227,184 229,184 229,186 231,186 231,187 232,187 232,188 233,188 233,189 234,189 234,190 238,190 238,191 239,191 239,192 240,192 240,193 241,193 241,195 242,195 242,196 243,196 243,197 244,197 z M 205,226 206,226 206,228 207,228 207,230 208,230 208,231 209,231 209,232 210,232 212,232 212,231 213,231 213,230 214,230 214,229 216,229 216,228 217,228 217,229 218,229 219,229 219,230 220,230 220,231 222,231 222,232 223,232 223,233 224,233 224,234 227,234 227,235 228,235 228,234 229,234 229,233 230,233 230,232 232,232 232,231 233,231 233,230 234,230 234,229 235,229 235,228 236,228 236,224 235,224 235,221 234,221 234,218 233,218 233,216 232,216 232,214 230,214 230,213 228,213 228,212 226,212 226,211 225,211 225,210 223,210 223,207 223,206 222,206 222,205 220,205 220,204 216,204 211,204 211,205 210,205 210,206 209,206 209,207 208,207 208,208 208,209 209,209 209,210 212,210 212,213 211,213 211,214 210,214 210,215 209,215 209,216 207,216 206,216 206,217 205,217 z M 214,256 214,252 213,252 213,250 207,250 207,252 208,252 208,254 209,254 209,255 211,255 211,256 z" fill="#ff0000" fill-opacity="1.0" id="xff0000_r255_g0_b0_a1.0_shape1"/>
  </g>
  <g id="x0000ff_r0_g0_b255_a1.0">
    <path d="M 197,254 197,252 196,252 196,250 195,250 195,245 195,241 194,241 194,240 193,240 193,236 194,236 194,234 195,234 195,233 197,233 198,233 198,234 199,234 199,250 200,250 200,251 201,251 201,252 203,252 203,253 204,253 204,254 205,254 205,257 206,257 206,258 207,258 207,259 208,259 208,260 210,260 210,261 215,261 215,260 218,260 218,259 220,259 220,258 223,258 229,258 229,257 232,257 232,256 233,256 233,255 234,255 234,254 235,254 235,252 236,252 236,250 237,250 237,249 238,249 238,248 239,248 239,247 240,247 240,246 241,246 241,244 242,244 242,242 245,242 245,241 246,241 246,240 247,240 247,239 248,239 248,238 249,238 249,230 248,230 248,220 249,220 249,219 253,219 253,220 254,220 254,223 254,224 253,224 253,225 253,228 254,228 254,230 255,230 255,232 256,232 256,235 257,235 257,236 258,236 258,239 259,239 259,240 260,240 260,241 260,243 259,243 259,245 258,245 258,248 257,248 257,249 256,249 256,250 255,250 255,252 252,252 250,252 250,253 248,253 248,254 247,254 247,255 247,257 246,257 246,258 245,258 245,259 244,259 244,260 243,260 243,261 242,261 242,262 241,262 241,263 236,263 236,264 230,264 230,265 226,265 223,265 223,264 221,264 213,264 213,265 207,265 206,265 206,266 205,266 204,266 204,267 203,267 198,267 198,269 197,269 197,270 194,270 194,271 192,271 192,272 187,272 187,271 186,271 186,270 185,270 185,267 186,267 186,265 187,265 187,262 189,262 189,261 191,261 191,260 192,260 192,258 193,258 193,257 195,257 195,256 196,256 196,255 196,254 z" fill="#0000ff" fill-opacity="1.0" id="x0000ff_r0_g0_b255_a1.0_shape1"/>
    <path d="M 241,193 240,193 240,192 239,192 239,191 238,191 238,190 234,190 234,189 233,189 233,188 232,188 232,187 231,187 231,186 229,186 229,184 227,184 227,183 225,183 225,182 224,182 224,181 223,181 223,180 222,180 222,179 221,179 221,178 220,178 219,178 219,177 218,177 218,176 217,176 217,175 215,175 215,174 214,174 214,173 212,173 212,172 209,172 209,173 207,173 207,174 203,174 203,176 201,176 201,177 200,177 200,178 199,178 199,179 198,179 198,180 197,180 197,181 196,181 196,182 193,182 193,181 192,181 192,179 193,179 193,177 194,177 194,175 195,175 195,174 196,174 196,173 197,173 197,170 198,170 198,167 199,167 199,165 200,165 200,164 203,164 203,163 209,163 209,162 211,162 211,161 213,161 213,160 214,160 214,159 216,159 216,158 217,158 217,159 219,159 219,161 220,161 220,167 221,167 221,171 222,171 222,173 223,173 223,174 224,174 224,175 225,175 225,176 226,176 226,177 227,177 227,178 228,178 228,179 229,179 229,180 230,180 230,182 232,182 232,183 234,183 234,184 236,184 236,185 239,185 239,186 240,186 240,187 243,187 243,188 245,188 245,189 246,189 246,190 247,190 247,191 248,191 248,192 249,192 249,193 250,193 250,194 251,194 251,195 252,195 252,196 253,196 253,197 254,197 254,198 254,206 253,206 253,207 249,207 249,202 248,202 248,201 247,201 247,199 246,199 246,198 244,198 244,197 243,197 243,196 242,196 242,195 241,195 z" fill="#0000ff" fill-opacity="1.0" id="x0000ff_r0_g0_b255_a1.0_shape2"/>
    <path d="M 191,222 191,221 189,221 189,220 188,220 188,217 187,217 187,215 186,215 186,210 187,210 187,209 191,209 191,210 192,210 192,211 193,211 193,216 194,216 194,218 195,218 195,222 z" fill="#0000ff" fill-opacity="1.0" id="x0000ff_r0_g0_b255_a1.0_shape3"/>
  </g>
  <g id="x00ff00_r0_g255_b0_a1.0">
    <path d="M 227,234 224,234 224,233 223,233 223,232 222,232 222,231 220,231 220,230 219,230 219,229 218,229 217,229 217,228 216,228 216,229 214,229 214,230 213,230 213,231 212,231 212,232 209,232 209,231 208,231 208,230 207,230 207,228 206,228 206,226 205,226 205,217 206,217 206,216 209,216 209,215 210,215 210,214 211,214 211,213 212,213 212,210 209,210 209,209 208,209 208,207 209,207 209,206 210,206 210,205 211,205 211,204 220,204 220,205 222,205 222,206 223,206 223,210 225,210 225,211 226,211 226,212 228,212 228,213 230,213 230,214 232,214 232,216 233,216 233,218 234,218 234,221 235,221 235,224 236,224 236,228 235,228 235,229 234,229 234,230 233,230 233,231 232,231 232,232 230,232 230,233 229,233 229,234 228,234 228,235 227,235 z" fill="#00ff00" fill-opacity="1.0" id="x00ff00_r0_g255_b0_a1.0_shape1"/>
    <path d="M 209,254 208,254 208,252 207,252 207,250 210,250 213,250 213,252 214,252 214,255 214,256 212,256 211,256 211,255 210,255 209,255 z" fill="#00ff00" fill-opacity="1.0" id="x00ff00_r0_g255_b0_a1.0_shape2"/>
  </g>
</svg>
