<?xml version="1.0" encoding="utf-8" ?>
<svg baseProfile="full" height="32px" version="1.1" viewBox="0 0 32 32" width="32px" xmlns="http://www.w3.org/2000/svg" xmlns:ev="http://www.w3.org/2001/xml-events" xmlns:xlink="http://www.w3.org/1999/xlink"><defs /><path d="M 11,25 11,24 8,24 8,21 7,21 7,18 8,18 8,20 9,20 9,23 12,23 12,24 14,24 14,25 z" fill="none" fill-opacity="0" id="x604800_r96_g72_b0_a1.0_shape1" stroke="#666666" stroke-width="0.02" /><path d="M 4,16 6,16 6,17 4,17 4,18 3,18 3,15 4,15 z" fill="none" fill-opacity="0" id="x604800_r96_g72_b0_a1.0_shape2" stroke="#666666" stroke-width="0.02" /><path d="M 13,20 13,19 12,19 11,19 11,18 12,18 13,18 14,18 14,19 14,20 14,21 13,21 z" fill="none" fill-opacity="0" id="x604800_r96_g72_b0_a1.0_shape3" stroke="#666666" stroke-width="0.02" /><path d="M 16,26 16,28 17,28 17,29 14,29 14,28 15,28 15,26 z" fill="none" fill-opacity="0" id="x604800_r96_g72_b0_a1.0_shape4" stroke="#666666" stroke-width="0.02" /><path d="M 10,12 8,12 8,11 11,11 11,13 10,13 z" fill="none" fill-opacity="0" id="x604800_r96_g72_b0_a1.0_shape5" stroke="#666666" stroke-width="0.02" /><path d="M 20,22 19,22 19,21 21,21 21,24 20,24 z" fill="none" fill-opacity="0" id="x604800_r96_g72_b0_a1.0_shape6" stroke="#666666" stroke-width="0.02" /><path d="M 7,12 8,12 8,13 7,13 6,13 6,12 z" fill="none" fill-opacity="0" id="x604800_r96_g72_b0_a1.0_shape7" stroke="#666666" stroke-width="0.02" /><path d="M 9,14 9,16 8,16 8,14 z" fill="none" fill-opacity="0" id="x604800_r96_g72_b0_a1.0_shape8" stroke="#666666" stroke-width="0.02" /><path d="M 17,23 18,23 18,24 17,24 16,24 16,23 z" fill="none" fill-opacity="0" id="x604800_r96_g72_b0_a1.0_shape9" stroke="#666666" stroke-width="0.02" /><path d="M 20,24 20,26 19,26 19,24 z" fill="none" fill-opacity="0" id="x604800_r96_g72_b0_a1.0_shape10" stroke="#666666" stroke-width="0.02" /><path d="M 6,13 6,14 5,14 5,13 z" fill="none" fill-opacity="0" id="x604800_r96_g72_b0_a1.0_shape11" stroke="#666666" stroke-width="0.02" /><path d="M 9,14 9,13 10,13 10,14 z" fill="none" fill-opacity="0" id="x604800_r96_g72_b0_a1.0_shape12" stroke="#666666" stroke-width="0.02" /><path d="M 5,15 4,15 4,14 5,14 z" fill="none" fill-opacity="0" id="x604800_r96_g72_b0_a1.0_shape13" stroke="#666666" stroke-width="0.02" /><path d="M 10,17 9,17 9,16 10,16 z" fill="none" fill-opacity="0" id="x604800_r96_g72_b0_a1.0_shape14" stroke="#666666" stroke-width="0.02" /><path d="M 6,17 7,17 7,18 6,18 z" fill="none" fill-opacity="0" id="x604800_r96_g72_b0_a1.0_shape15" stroke="#666666" stroke-width="0.02" /><path d="M 10,18 10,17 11,17 11,18 z" fill="none" fill-opacity="0" id="x604800_r96_g72_b0_a1.0_shape16" stroke="#666666" stroke-width="0.02" /><path d="M 14,22 14,21 15,21 15,22 z" fill="none" fill-opacity="0" id="x604800_r96_g72_b0_a1.0_shape17" stroke="#666666" stroke-width="0.02" /><path d="M 15,23 15,22 16,22 16,23 z" fill="none" fill-opacity="0" id="x604800_r96_g72_b0_a1.0_shape18" stroke="#666666" stroke-width="0.02" /><path d="M 18,22 19,22 19,23 18,23 z" fill="none" fill-opacity="0" id="x604800_r96_g72_b0_a1.0_shape19" stroke="#666666" stroke-width="0.02" /><path d="M 14,26 14,25 15,25 15,26 z" fill="none" fill-opacity="0" id="x604800_r96_g72_b0_a1.0_shape20" stroke="#666666" stroke-width="0.02" /><path d="M 18,27 18,26 19,26 19,27 z" fill="none" fill-opacity="0" id="x604800_r96_g72_b0_a1.0_shape21" stroke="#666666" stroke-width="0.02" /><path d="M 18,27 18,28 17,28 17,27 z" fill="none" fill-opacity="0" id="x604800_r96_g72_b0_a1.0_shape22" stroke="#666666" stroke-width="0.02" /><path d="M 26,2 27,2 27,5 25,5 25,6 24,6 24,7 23,7 23,8 22,8 22,9 21,9 21,11 20,11 20,12 19,12 19,13 18,13 18,14 17,14 17,11 18,11 18,10 19,10 19,9 20,9 20,8 21,8 21,7 22,7 22,6 23,6 23,5 24,5 24,4 25,4 25,3 26,3 z" fill="none" fill-opacity="0" id="xd5ebf4_r213_g235_b244_a1.0_shape1" stroke="#666666" stroke-width="0.02" /><path d="M 28,5 28,4 29,4 29,3 30,3 30,5 z" fill="none" fill-opacity="0" id="xd5ebf4_r213_g235_b244_a1.0_shape2" stroke="#666666" stroke-width="0.02" /><path d="M 17,15 16,15 16,14 17,14 z" fill="none" fill-opacity="0" id="xd5ebf4_r213_g235_b244_a1.0_shape3" stroke="#666666" stroke-width="0.02" /><path d="M 16,15 16,16 15,16 15,15 z" fill="none" fill-opacity="0" id="xd5ebf4_r213_g235_b244_a1.0_shape4" stroke="#666666" stroke-width="0.02" /><path d="M 26,2 26,1 31,1 31,4 31,6 30,6 30,4 30,2 z" fill="none" fill-opacity="0" id="x174159_r23_g65_b89_a1.0_shape1" stroke="#666666" stroke-width="0.02" /><path d="M 25,3 25,2 26,2 26,3 z" fill="none" fill-opacity="0" id="x174159_r23_g65_b89_a1.0_shape2" stroke="#666666" stroke-width="0.02" /><path d="M 24,4 24,3 25,3 25,4 z" fill="none" fill-opacity="0" id="x174159_r23_g65_b89_a1.0_shape3" stroke="#666666" stroke-width="0.02" /><path d="M 24,5 23,5 23,4 24,4 z" fill="none" fill-opacity="0" id="x174159_r23_g65_b89_a1.0_shape4" stroke="#666666" stroke-width="0.02" /><path d="M 22,5 23,5 23,6 22,6 z" fill="none" fill-opacity="0" id="x174159_r23_g65_b89_a1.0_shape5" stroke="#666666" stroke-width="0.02" /><path d="M 21,7 21,6 22,6 22,7 z" fill="none" fill-opacity="0" id="x174159_r23_g65_b89_a1.0_shape6" stroke="#666666" stroke-width="0.02" /><path d="M 30,6 30,7 29,7 29,6 z" fill="none" fill-opacity="0" id="x174159_r23_g65_b89_a1.0_shape7" stroke="#666666" stroke-width="0.02" /><path d="M 20,7 21,7 21,8 20,8 z" fill="none" fill-opacity="0" id="x174159_r23_g65_b89_a1.0_shape8" stroke="#666666" stroke-width="0.02" /><path d="M 28,7 29,7 29,8 28,8 z" fill="none" fill-opacity="0" id="x174159_r23_g65_b89_a1.0_shape9" stroke="#666666" stroke-width="0.02" /><path d="M 20,9 19,9 19,8 20,8 z" fill="none" fill-opacity="0" id="x174159_r23_g65_b89_a1.0_shape10" stroke="#666666" stroke-width="0.02" /><path d="M 28,9 27,9 27,8 28,8 z" fill="none" fill-opacity="0" id="x174159_r23_g65_b89_a1.0_shape11" stroke="#666666" stroke-width="0.02" /><path d="M 18,10 18,9 19,9 19,10 z" fill="none" fill-opacity="0" id="x174159_r23_g65_b89_a1.0_shape12" stroke="#666666" stroke-width="0.02" /><path d="M 27,9 27,10 26,10 26,9 z" fill="none" fill-opacity="0" id="x174159_r23_g65_b89_a1.0_shape13" stroke="#666666" stroke-width="0.02" /><path d="M 17,11 17,10 18,10 18,11 z" fill="none" fill-opacity="0" id="x174159_r23_g65_b89_a1.0_shape14" stroke="#666666" stroke-width="0.02" /><path d="M 25,11 25,10 26,10 26,11 z" fill="none" fill-opacity="0" id="x174159_r23_g65_b89_a1.0_shape15" stroke="#666666" stroke-width="0.02" /><path d="M 17,11 17,12 16,12 16,11 z" fill="none" fill-opacity="0" id="x174159_r23_g65_b89_a1.0_shape16" stroke="#666666" stroke-width="0.02" /><path d="M 24,12 24,11 25,11 25,12 z" fill="none" fill-opacity="0" id="x174159_r23_g65_b89_a1.0_shape17" stroke="#666666" stroke-width="0.02" /><path d="M 23,13 23,12 24,12 24,13 z" fill="none" fill-opacity="0" id="x174159_r23_g65_b89_a1.0_shape18" stroke="#666666" stroke-width="0.02" /><path d="M 23,13 23,14 22,14 22,13 z" fill="none" fill-opacity="0" id="x174159_r23_g65_b89_a1.0_shape19" stroke="#666666" stroke-width="0.02" /><path d="M 21,15 21,14 22,14 22,15 z" fill="none" fill-opacity="0" id="x174159_r23_g65_b89_a1.0_shape20" stroke="#666666" stroke-width="0.02" /><path d="M 21,15 21,16 20,16 20,15 z" fill="none" fill-opacity="0" id="x174159_r23_g65_b89_a1.0_shape21" stroke="#666666" stroke-width="0.02" /><path d="M 22,12 22,13 21,13 21,14 20,14 20,15 19,15 18,15 18,14 19,14 19,13 20,13 20,12 21,12 21,11 22,11 22,10 23,10 23,9 24,9 24,8 25,8 25,7 26,7 26,6 27,6 27,5 28,5 29,5 29,6 28,6 28,7 27,7 27,8 26,8 26,9 25,9 25,10 24,10 24,11 23,11 23,12 z" fill="none" fill-opacity="0" id="xadd6ec_r173_g214_b236_a1.0_shape1" stroke="#666666" stroke-width="0.02" /><path d="M 17,12 17,14 16,14 16,12 z" fill="none" fill-opacity="0" id="xadd6ec_r173_g214_b236_a1.0_shape2" stroke="#666666" stroke-width="0.02" /><path d="M 14,16 14,15 15,15 15,16 15,17 14,17 z" fill="none" fill-opacity="0" id="xadd6ec_r173_g214_b236_a1.0_shape3" stroke="#666666" stroke-width="0.02" /><path d="M 16,15 15,15 15,14 16,14 z" fill="none" fill-opacity="0" id="xadd6ec_r173_g214_b236_a1.0_shape4" stroke="#666666" stroke-width="0.02" /><path d="M 17,15 18,15 18,16 17,16 z" fill="none" fill-opacity="0" id="xadd6ec_r173_g214_b236_a1.0_shape5" stroke="#666666" stroke-width="0.02" /><path d="M 16,17 16,16 17,16 17,17 z" fill="none" fill-opacity="0" id="xadd6ec_r173_g214_b236_a1.0_shape6" stroke="#666666" stroke-width="0.02" /><path d="M 7,23 8,23 8,24 9,24 9,25 7,25 z" fill="none" fill-opacity="0" id="x6d4c41_r109_g76_b65_a1.0_shape1" stroke="#666666" stroke-width="0.02" /><path d="M 1,26 2,26 2,29 1,29 z" fill="none" fill-opacity="0" id="x6d4c41_r109_g76_b65_a1.0_shape2" stroke="#666666" stroke-width="0.02" /><path d="M 6,30 6,31 3,31 3,30 z" fill="none" fill-opacity="0" id="x6d4c41_r109_g76_b65_a1.0_shape3" stroke="#666666" stroke-width="0.02" /><path d="M 5,23 5,22 6,22 6,23 6,24 5,24 z" fill="none" fill-opacity="0" id="x6d4c41_r109_g76_b65_a1.0_shape4" stroke="#666666" stroke-width="0.02" /><path d="M 4,25 4,26 3,26 2,26 2,25 3,25 z" fill="none" fill-opacity="0" id="x6d4c41_r109_g76_b65_a1.0_shape5" stroke="#666666" stroke-width="0.02" /><path d="M 9,27 8,27 8,26 9,26 10,26 10,27 z" fill="none" fill-opacity="0" id="x6d4c41_r109_g76_b65_a1.0_shape6" stroke="#666666" stroke-width="0.02" /><path d="M 6,28 7,28 7,29 7,30 6,30 6,29 z" fill="none" fill-opacity="0" id="x6d4c41_r109_g76_b65_a1.0_shape7" stroke="#666666" stroke-width="0.02" /><path d="M 7,22 6,22 6,21 7,21 z" fill="none" fill-opacity="0" id="x6d4c41_r109_g76_b65_a1.0_shape8" stroke="#666666" stroke-width="0.02" /><path d="M 4,25 4,24 5,24 5,25 z" fill="none" fill-opacity="0" id="x6d4c41_r109_g76_b65_a1.0_shape9" stroke="#666666" stroke-width="0.02" /><path d="M 10,26 10,25 11,25 11,26 z" fill="none" fill-opacity="0" id="x6d4c41_r109_g76_b65_a1.0_shape10" stroke="#666666" stroke-width="0.02" /><path d="M 3,27 4,27 4,28 3,28 z" fill="none" fill-opacity="0" id="x6d4c41_r109_g76_b65_a1.0_shape11" stroke="#666666" stroke-width="0.02" /><path d="M 7,28 7,27 8,27 8,28 z" fill="none" fill-opacity="0" id="x6d4c41_r109_g76_b65_a1.0_shape12" stroke="#666666" stroke-width="0.02" /><path d="M 5,29 4,29 4,28 5,28 z" fill="none" fill-opacity="0" id="x6d4c41_r109_g76_b65_a1.0_shape13" stroke="#666666" stroke-width="0.02" /><path d="M 3,29 3,30 2,30 2,29 z" fill="none" fill-opacity="0" id="x6d4c41_r109_g76_b65_a1.0_shape14" stroke="#666666" stroke-width="0.02" /><path d="M 5,14 6,14 6,13 7,13 8,13 8,14 7,14 7,16 6,16 6,15 5,15 z" fill="none" fill-opacity="0" id="xf8bb0b_r248_g187_b11_a1.0_shape1" stroke="#666666" stroke-width="0.02" /><path d="M 19,25 19,26 18,26 18,27 17,27 17,26 16,26 16,25 17,25 18,25 18,24 19,24 z" fill="none" fill-opacity="0" id="xf8bb0b_r248_g187_b11_a1.0_shape2" stroke="#666666" stroke-width="0.02" /><path d="M 10,17 10,18 9,18 8,18 8,17 9,17 z" fill="none" fill-opacity="0" id="xf8bb0b_r248_g187_b11_a1.0_shape3" stroke="#666666" stroke-width="0.02" /><path d="M 14,22 15,22 15,23 15,24 14,24 14,23 z" fill="none" fill-opacity="0" id="xf8bb0b_r248_g187_b11_a1.0_shape4" stroke="#666666" stroke-width="0.02" /><path d="M 8,12 9,12 9,13 8,13 z" fill="none" fill-opacity="0" id="xf8bb0b_r248_g187_b11_a1.0_shape5" stroke="#666666" stroke-width="0.02" /><path d="M 7,16 8,16 8,17 7,17 z" fill="none" fill-opacity="0" id="xf8bb0b_r248_g187_b11_a1.0_shape6" stroke="#666666" stroke-width="0.02" /><path d="M 10,18 11,18 11,19 10,19 z" fill="none" fill-opacity="0" id="xf8bb0b_r248_g187_b11_a1.0_shape7" stroke="#666666" stroke-width="0.02" /><path d="M 10,21 9,21 9,20 10,20 z" fill="none" fill-opacity="0" id="xf8bb0b_r248_g187_b11_a1.0_shape8" stroke="#666666" stroke-width="0.02" /><path d="M 13,21 14,21 14,22 13,22 z" fill="none" fill-opacity="0" id="xf8bb0b_r248_g187_b11_a1.0_shape9" stroke="#666666" stroke-width="0.02" /><path d="M 11,22 12,22 12,23 11,23 z" fill="none" fill-opacity="0" id="xf8bb0b_r248_g187_b11_a1.0_shape10" stroke="#666666" stroke-width="0.02" /><path d="M 20,24 19,24 19,23 20,23 z" fill="none" fill-opacity="0" id="xf8bb0b_r248_g187_b11_a1.0_shape11" stroke="#666666" stroke-width="0.02" /><path d="M 16,25 15,25 15,24 16,24 z" fill="none" fill-opacity="0" id="xf8bb0b_r248_g187_b11_a1.0_shape12" stroke="#666666" stroke-width="0.02" /><path d="M 15,13 15,12 16,12 16,13 16,14 15,14 z" fill="none" fill-opacity="0" id="x5d5d5d_r93_g93_b93_a1.0_shape1" stroke="#666666" stroke-width="0.02" /><path d="M 13,17 13,15 14,15 14,17 z" fill="none" fill-opacity="0" id="x5d5d5d_r93_g93_b93_a1.0_shape2" stroke="#666666" stroke-width="0.02" /><path d="M 20,16 20,17 19,17 18,17 18,16 19,16 z" fill="none" fill-opacity="0" id="x5d5d5d_r93_g93_b93_a1.0_shape3" stroke="#666666" stroke-width="0.02" /><path d="M 17,18 17,19 16,19 15,19 15,18 16,18 z" fill="none" fill-opacity="0" id="x5d5d5d_r93_g93_b93_a1.0_shape4" stroke="#666666" stroke-width="0.02" /><path d="M 15,11 15,12 14,12 14,11 z" fill="none" fill-opacity="0" id="x5d5d5d_r93_g93_b93_a1.0_shape5" stroke="#666666" stroke-width="0.02" /><path d="M 13,12 14,12 14,13 13,13 z" fill="none" fill-opacity="0" id="x5d5d5d_r93_g93_b93_a1.0_shape6" stroke="#666666" stroke-width="0.02" /><path d="M 13,14 12,14 12,13 13,13 z" fill="none" fill-opacity="0" id="x5d5d5d_r93_g93_b93_a1.0_shape7" stroke="#666666" stroke-width="0.02" /><path d="M 11,15 11,14 12,14 12,15 z" fill="none" fill-opacity="0" id="x5d5d5d_r93_g93_b93_a1.0_shape8" stroke="#666666" stroke-width="0.02" /><path d="M 15,14 15,15 14,15 14,14 z" fill="none" fill-opacity="0" id="x5d5d5d_r93_g93_b93_a1.0_shape9" stroke="#666666" stroke-width="0.02" /><path d="M 11,15 11,16 10,16 10,15 z" fill="none" fill-opacity="0" id="x5d5d5d_r93_g93_b93_a1.0_shape10" stroke="#666666" stroke-width="0.02" /><path d="M 15,18 14,18 14,17 15,17 z" fill="none" fill-opacity="0" id="x5d5d5d_r93_g93_b93_a1.0_shape11" stroke="#666666" stroke-width="0.02" /><path d="M 18,17 18,18 17,18 17,17 z" fill="none" fill-opacity="0" id="x5d5d5d_r93_g93_b93_a1.0_shape12" stroke="#666666" stroke-width="0.02" /><path d="M 21,17 21,18 20,18 20,17 z" fill="none" fill-opacity="0" id="x5d5d5d_r93_g93_b93_a1.0_shape13" stroke="#666666" stroke-width="0.02" /><path d="M 19,19 19,18 20,18 20,19 z" fill="none" fill-opacity="0" id="x5d5d5d_r93_g93_b93_a1.0_shape14" stroke="#666666" stroke-width="0.02" /><path d="M 18,20 18,19 19,19 19,20 z" fill="none" fill-opacity="0" id="x5d5d5d_r93_g93_b93_a1.0_shape15" stroke="#666666" stroke-width="0.02" /><path d="M 18,20 18,21 17,21 17,20 z" fill="none" fill-opacity="0" id="x5d5d5d_r93_g93_b93_a1.0_shape16" stroke="#666666" stroke-width="0.02" /><path d="M 16,22 16,21 17,21 17,22 z" fill="none" fill-opacity="0" id="x5d5d5d_r93_g93_b93_a1.0_shape17" stroke="#666666" stroke-width="0.02" /><path d="M 30,2 30,3 29,3 29,4 28,4 28,5 27,5 27,2 29,2 z" fill="none" fill-opacity="0" id="xffffff_r255_g255_b255_a1.0_shape1" stroke="#666666" stroke-width="0.02" /><path d="M 25,6 25,5 26,5 26,6 z" fill="none" fill-opacity="0" id="xffffff_r255_g255_b255_a1.0_shape2" stroke="#666666" stroke-width="0.02" /><path d="M 24,7 24,6 25,6 25,7 z" fill="none" fill-opacity="0" id="xffffff_r255_g255_b255_a1.0_shape3" stroke="#666666" stroke-width="0.02" /><path d="M 23,7 24,7 24,8 23,8 z" fill="none" fill-opacity="0" id="xffffff_r255_g255_b255_a1.0_shape4" stroke="#666666" stroke-width="0.02" /><path d="M 23,9 22,9 22,8 23,8 z" fill="none" fill-opacity="0" id="xffffff_r255_g255_b255_a1.0_shape5" stroke="#666666" stroke-width="0.02" /><path d="M 21,10 21,9 22,9 22,10 z" fill="none" fill-opacity="0" id="xffffff_r255_g255_b255_a1.0_shape6" stroke="#666666" stroke-width="0.02" /><path d="M 15,12 15,13 14,13 14,12 z" fill="none" fill-opacity="0" id="xffffff_r255_g255_b255_a1.0_shape7" stroke="#666666" stroke-width="0.02" /><path d="M 8,16 7,16 7,15 8,15 z" fill="none" fill-opacity="0" id="xffffff_r255_g255_b255_a1.0_shape8" stroke="#666666" stroke-width="0.02" /><path d="M 9,16 9,17 8,17 8,16 z" fill="none" fill-opacity="0" id="xffffff_r255_g255_b255_a1.0_shape9" stroke="#666666" stroke-width="0.02" /><path d="M 20,17 20,18 19,18 19,17 z" fill="none" fill-opacity="0" id="xffffff_r255_g255_b255_a1.0_shape10" stroke="#666666" stroke-width="0.02" /><path d="M 13,19 13,20 12,20 12,19 z" fill="none" fill-opacity="0" id="xffffff_r255_g255_b255_a1.0_shape11" stroke="#666666" stroke-width="0.02" /><path d="M 16,24 15,24 15,23 16,23 z" fill="none" fill-opacity="0" id="xffffff_r255_g255_b255_a1.0_shape12" stroke="#666666" stroke-width="0.02" /><path d="M 16,25 16,24 17,24 17,25 z" fill="none" fill-opacity="0" id="xffffff_r255_g255_b255_a1.0_shape13" stroke="#666666" stroke-width="0.02" /><path d="M 9,19 9,20 8,20 8,18 10,18 10,19 z" fill="none" fill-opacity="0" id="xcb9500_r203_g149_b0_a1.0_shape1" stroke="#666666" stroke-width="0.02" /><path d="M 11,23 9,23 9,22 9,21 10,21 10,22 11,22 z" fill="none" fill-opacity="0" id="xcb9500_r203_g149_b0_a1.0_shape2" stroke="#666666" stroke-width="0.02" /><path d="M 12,23 13,23 13,22 14,22 14,24 13,24 12,24 z" fill="none" fill-opacity="0" id="xcb9500_r203_g149_b0_a1.0_shape3" stroke="#666666" stroke-width="0.02" /><path d="M 5,15 6,15 6,16 5,16 4,16 4,15 z" fill="none" fill-opacity="0" id="xcb9500_r203_g149_b0_a1.0_shape4" stroke="#666666" stroke-width="0.02" /><path d="M 17,26 17,28 16,28 16,26 z" fill="none" fill-opacity="0" id="xcb9500_r203_g149_b0_a1.0_shape5" stroke="#666666" stroke-width="0.02" /><path d="M 6,16 7,16 7,17 6,17 z" fill="none" fill-opacity="0" id="xcb9500_r203_g149_b0_a1.0_shape6" stroke="#666666" stroke-width="0.02" /><path d="M 8,17 8,18 7,18 7,17 z" fill="none" fill-opacity="0" id="xcb9500_r203_g149_b0_a1.0_shape7" stroke="#666666" stroke-width="0.02" /><path d="M 14,24 15,24 15,25 14,25 z" fill="none" fill-opacity="0" id="xcb9500_r203_g149_b0_a1.0_shape8" stroke="#666666" stroke-width="0.02" /><path d="M 16,26 15,26 15,25 16,25 z" fill="none" fill-opacity="0" id="xcb9500_r203_g149_b0_a1.0_shape9" stroke="#666666" stroke-width="0.02" /><path d="M 9,25 9,24 11,24 11,25 10,25 10,26 8,26 8,27 7,27 7,26 7,25 z" fill="none" fill-opacity="0" id="xb88279_r184_g130_b121_a1.0_shape1" stroke="#666666" stroke-width="0.02" /><path d="M 3,30 3,29 5,29 5,28 6,28 6,30 z" fill="none" fill-opacity="0" id="xb88279_r184_g130_b121_a1.0_shape2" stroke="#666666" stroke-width="0.02" /><path d="M 7,22 7,25 6,25 6,22 z" fill="none" fill-opacity="0" id="xb88279_r184_g130_b121_a1.0_shape3" stroke="#666666" stroke-width="0.02" /><path d="M 8,22 7,22 7,21 8,21 z" fill="none" fill-opacity="0" id="xb88279_r184_g130_b121_a1.0_shape4" stroke="#666666" stroke-width="0.02" /><path d="M 2,27 2,26 3,26 3,27 z" fill="none" fill-opacity="0" id="xb88279_r184_g130_b121_a1.0_shape5" stroke="#666666" stroke-width="0.02" /><path d="M 7,28 6,28 6,27 7,27 z" fill="none" fill-opacity="0" id="xb88279_r184_g130_b121_a1.0_shape6" stroke="#666666" stroke-width="0.02" /><path d="M 3,29 2,29 2,28 3,28 z" fill="none" fill-opacity="0" id="xb88279_r184_g130_b121_a1.0_shape7" stroke="#666666" stroke-width="0.02" /><path d="M 20,16 18,16 18,15 20,15 z" fill="none" fill-opacity="0" id="x5aaed8_r90_g174_b216_a1.0_shape1" stroke="#666666" stroke-width="0.02" /><path d="M 16,17 17,17 17,18 16,18 15,18 15,17 z" fill="none" fill-opacity="0" id="x5aaed8_r90_g174_b216_a1.0_shape2" stroke="#666666" stroke-width="0.02" /><path d="M 27,5 27,6 26,6 26,5 z" fill="none" fill-opacity="0" id="x5aaed8_r90_g174_b216_a1.0_shape3" stroke="#666666" stroke-width="0.02" /><path d="M 30,6 29,6 29,5 30,5 z" fill="none" fill-opacity="0" id="x5aaed8_r90_g174_b216_a1.0_shape4" stroke="#666666" stroke-width="0.02" /><path d="M 28,7 28,6 29,6 29,7 z" fill="none" fill-opacity="0" id="x5aaed8_r90_g174_b216_a1.0_shape5" stroke="#666666" stroke-width="0.02" /><path d="M 27,7 28,7 28,8 27,8 z" fill="none" fill-opacity="0" id="x5aaed8_r90_g174_b216_a1.0_shape6" stroke="#666666" stroke-width="0.02" /><path d="M 27,9 26,9 26,8 27,8 z" fill="none" fill-opacity="0" id="x5aaed8_r90_g174_b216_a1.0_shape7" stroke="#666666" stroke-width="0.02" /><path d="M 26,10 25,10 25,9 26,9 z" fill="none" fill-opacity="0" id="x5aaed8_r90_g174_b216_a1.0_shape8" stroke="#666666" stroke-width="0.02" /><path d="M 24,11 24,10 25,10 25,11 z" fill="none" fill-opacity="0" id="x5aaed8_r90_g174_b216_a1.0_shape9" stroke="#666666" stroke-width="0.02" /><path d="M 23,12 23,11 24,11 24,12 z" fill="none" fill-opacity="0" id="x5aaed8_r90_g174_b216_a1.0_shape10" stroke="#666666" stroke-width="0.02" /><path d="M 22,12 23,12 23,13 22,13 z" fill="none" fill-opacity="0" id="x5aaed8_r90_g174_b216_a1.0_shape11" stroke="#666666" stroke-width="0.02" /><path d="M 22,14 21,14 21,13 22,13 z" fill="none" fill-opacity="0" id="x5aaed8_r90_g174_b216_a1.0_shape12" stroke="#666666" stroke-width="0.02" /><path d="M 21,15 20,15 20,14 21,14 z" fill="none" fill-opacity="0" id="x5aaed8_r90_g174_b216_a1.0_shape13" stroke="#666666" stroke-width="0.02" /><path d="M 18,17 17,17 17,16 18,16 z" fill="none" fill-opacity="0" id="x5aaed8_r90_g174_b216_a1.0_shape14" stroke="#666666" stroke-width="0.02" /><path d="M 18,19 18,20 17,20 17,21 16,21 16,22 15,22 15,21 14,21 14,19 14,18 15,18 15,19 z" fill="none" fill-opacity="0" id="xaaaaaa_r170_g170_b170_a1.0_shape1" stroke="#666666" stroke-width="0.02" /><path d="M 12,18 11,18 11,17 10,17 10,16 11,16 11,15 12,15 12,16 12,17 z" fill="none" fill-opacity="0" id="xaaaaaa_r170_g170_b170_a1.0_shape2" stroke="#666666" stroke-width="0.02" /><path d="M 9,20 9,19 12,19 12,20 z" fill="none" fill-opacity="0" id="xf6e4ae_r246_g228_b174_a1.0_shape1" stroke="#666666" stroke-width="0.02" /><path d="M 13,20 13,23 12,23 12,20 z" fill="none" fill-opacity="0" id="xf6e4ae_r246_g228_b174_a1.0_shape2" stroke="#666666" stroke-width="0.02" /><path d="M 9,13 9,12 10,12 10,13 z" fill="none" fill-opacity="0" id="xf6e4ae_r246_g228_b174_a1.0_shape3" stroke="#666666" stroke-width="0.02" /><path d="M 9,14 8,14 8,13 9,13 z" fill="none" fill-opacity="0" id="xf6e4ae_r246_g228_b174_a1.0_shape4" stroke="#666666" stroke-width="0.02" /><path d="M 8,14 8,15 7,15 7,14 z" fill="none" fill-opacity="0" id="xf6e4ae_r246_g228_b174_a1.0_shape5" stroke="#666666" stroke-width="0.02" /><path d="M 20,22 20,23 19,23 19,22 z" fill="none" fill-opacity="0" id="xf6e4ae_r246_g228_b174_a1.0_shape6" stroke="#666666" stroke-width="0.02" /><path d="M 19,23 19,24 18,24 18,23 z" fill="none" fill-opacity="0" id="xf6e4ae_r246_g228_b174_a1.0_shape7" stroke="#666666" stroke-width="0.02" /><path d="M 18,24 18,25 17,25 17,24 z" fill="none" fill-opacity="0" id="xf6e4ae_r246_g228_b174_a1.0_shape8" stroke="#666666" stroke-width="0.02" /><path d="M 26,7 25,7 25,6 26,6 z" fill="none" fill-opacity="0" id="x27739b_r39_g115_b155_a1.0_shape1" stroke="#666666" stroke-width="0.02" /><path d="M 25,8 24,8 24,7 25,7 z" fill="none" fill-opacity="0" id="x27739b_r39_g115_b155_a1.0_shape2" stroke="#666666" stroke-width="0.02" /><path d="M 23,8 24,8 24,9 23,9 z" fill="none" fill-opacity="0" id="x27739b_r39_g115_b155_a1.0_shape3" stroke="#666666" stroke-width="0.02" /><path d="M 23,9 23,10 22,10 22,9 z" fill="none" fill-opacity="0" id="x27739b_r39_g115_b155_a1.0_shape4" stroke="#666666" stroke-width="0.02" /><path d="M 22,10 22,11 21,11 21,10 z" fill="none" fill-opacity="0" id="x27739b_r39_g115_b155_a1.0_shape5" stroke="#666666" stroke-width="0.02" /><path d="M 21,11 21,12 20,12 20,11 z" fill="none" fill-opacity="0" id="x27739b_r39_g115_b155_a1.0_shape6" stroke="#666666" stroke-width="0.02" /><path d="M 20,12 20,13 19,13 19,12 z" fill="none" fill-opacity="0" id="x27739b_r39_g115_b155_a1.0_shape7" stroke="#666666" stroke-width="0.02" /><path d="M 18,13 19,13 19,14 18,14 z" fill="none" fill-opacity="0" id="x27739b_r39_g115_b155_a1.0_shape8" stroke="#666666" stroke-width="0.02" /><path d="M 18,14 18,15 17,15 17,14 z" fill="none" fill-opacity="0" id="x27739b_r39_g115_b155_a1.0_shape9" stroke="#666666" stroke-width="0.02" /><path d="M 17,15 17,16 16,16 16,15 z" fill="none" fill-opacity="0" id="x27739b_r39_g115_b155_a1.0_shape10" stroke="#666666" stroke-width="0.02" /><path d="M 16,17 15,17 15,16 16,16 z" fill="none" fill-opacity="0" id="x27739b_r39_g115_b155_a1.0_shape11" stroke="#666666" stroke-width="0.02" /><path d="M 14,18 12,18 12,17 12,14 13,14 13,13 15,13 15,14 14,14 14,15 13,15 13,17 14,17 z" fill="none" fill-opacity="0" id="xdedede_r222_g222_b222_a1.0_shape1" stroke="#666666" stroke-width="0.02" /><path d="M 17,19 17,18 18,18 18,17 19,17 19,19 z" fill="none" fill-opacity="0" id="xdedede_r222_g222_b222_a1.0_shape2" stroke="#666666" stroke-width="0.02" /><path d="M 7,23 7,22 8,22 8,23 z" fill="none" fill-opacity="0" id="xe8b6ac_r232_g182_b172_a1.0_shape1" stroke="#666666" stroke-width="0.02" /><path d="M 5,25 5,24 6,24 6,25 z" fill="none" fill-opacity="0" id="xe8b6ac_r232_g182_b172_a1.0_shape2" stroke="#666666" stroke-width="0.02" /><path d="M 4,25 5,25 5,26 4,26 z" fill="none" fill-opacity="0" id="xe8b6ac_r232_g182_b172_a1.0_shape3" stroke="#666666" stroke-width="0.02" /><path d="M 3,27 3,26 4,26 4,27 z" fill="none" fill-opacity="0" id="xe8b6ac_r232_g182_b172_a1.0_shape4" stroke="#666666" stroke-width="0.02" /><path d="M 6,26 7,26 7,27 6,27 z" fill="none" fill-opacity="0" id="xe8b6ac_r232_g182_b172_a1.0_shape5" stroke="#666666" stroke-width="0.02" /><path d="M 3,27 3,28 2,28 2,27 z" fill="none" fill-opacity="0" id="xe8b6ac_r232_g182_b172_a1.0_shape6" stroke="#666666" stroke-width="0.02" /><path d="M 5,28 5,27 6,27 6,28 z" fill="none" fill-opacity="0" id="xe8b6ac_r232_g182_b172_a1.0_shape7" stroke="#666666" stroke-width="0.02" /><path d="M 4,28 4,29 3,29 3,28 z" fill="none" fill-opacity="0" id="xe8b6ac_r232_g182_b172_a1.0_shape8" stroke="#666666" stroke-width="0.02" /><path d="M 4,27 4,26 5,26 5,25 7,25 7,26 6,26 6,27 5,27 5,28 4,28 z" fill="none" fill-opacity="0" id="xf2d6d1_r242_g214_b209_a1.0_shape1" stroke="#666666" stroke-width="0.02" /><path d="M 11,21 12,21 12,22 10,22 10,20 11,20 z" fill="none" fill-opacity="0" id="x6b1719_r107_g23_b25_a1.0_shape1" stroke="#666666" stroke-width="0.02" /><path d="M 11,20 12,20 12,21 11,21 z" fill="none" fill-opacity="0" id="xee5155_r238_g81_b85_a1.0_shape1" stroke="#666666" stroke-width="0.02" /></svg>